<svg id="Livello_1" data-name="Livello 1" xmlns="http://www.w3.org/2000/svg" viewBox="0 0 36 39"><defs><style>.cls-1{fill:none;stroke-linecap:round;stroke-linejoin:round;stroke-width:2px;}.cls-1,.cls-2{stroke:#fff;}.cls-2{fill:#fff;stroke-miterlimit:10;}</style></defs><path class="cls-1" d="M25,13.15a10.76,10.76,0,0,1-3.35,7.78,11.6,11.6,0,0,1-8.08,3.22,11.22,11.22,0,0,1-11.43-11,11.22,11.22,0,0,1,11.43-11A11.22,11.22,0,0,1,25,13.15Z"/><path class="cls-2" d="M22.09,21.69l13,14.86a.92.92,0,0,1,0,1.28l-.09.08a.92.92,0,0,1-1.34-.06L20.69,22.91a.93.93,0,0,1,.21-1.39h0A.92.92,0,0,1,22.09,21.69Z"/></svg>