<svg xmlns="http://www.w3.org/2000/svg" viewBox="0 0 1265.32 603.93"><defs><style>.cls-1,.cls-2,.cls-3,.cls-4{fill:none;}.cls-1{stroke:#ec6906;}.cls-1,.cls-3,.cls-4{stroke-miterlimit:10;}.cls-2{stroke:#9a6699;stroke-linecap:round;stroke-linejoin:round;}.cls-3{stroke:#00a9e3;}.cls-4{stroke:#fab412;}</style></defs><g id="Livello_2" data-name="Livello 2"><g id="Chi_siamo" data-name="Chi siamo"><path class="cls-1" d="M989.16,3.72c-5.57,5.57-4.07,11-5.82,15.71a55.67,55.67,0,0,1-20.57,2.12,2.8,2.8,0,0,0-3,3.6C963.46,36.6,969,42,973.41,44.47a38.69,38.69,0,0,0-3.72,12.45A2.56,2.56,0,0,0,973,59.69c19.63-6.46,19.31-18.71,19.31-19,0,.31-.33,12.56,19.31,19a2.56,2.56,0,0,0,3.33-2.77,38.67,38.67,0,0,0-3.73-12.45c4.39-2.5,10-7.87,13.68-19.32a2.79,2.79,0,0,0-3-3.6s-7.37,1.15-20.57-2.12c-1.74-4.69-.24-10.14-5.81-15.71C992.33.55,992.33.55,989.16,3.72Z"/><line class="cls-1" x1="992.33" y1="40.67" x2="992.33" y2="70.28"/><polyline class="cls-1" points="976.48 51.23 992.33 32.21 970.14 29.04"/><polyline class="cls-1" points="1008.17 51.23 992.33 32.21 1014.51 29.04"/><line class="cls-1" x1="992.33" y1="32.21" x2="992.33" y2="16.36"/><path class="cls-1" d="M30.06,3.59C24.49,9.16,26,14.6,24.24,19.3A55.54,55.54,0,0,1,3.67,21.41a2.8,2.8,0,0,0-3,3.6C4.36,36.47,9.92,41.84,14.31,44.34a38.44,38.44,0,0,0-3.72,12.45,2.56,2.56,0,0,0,3.33,2.77c19.63-6.46,19.31-18.71,19.31-19,0,.32-.33,12.57,19.31,19a2.56,2.56,0,0,0,3.33-2.77,38.67,38.67,0,0,0-3.73-12.45c4.39-2.5,10-7.87,13.68-19.33a2.8,2.8,0,0,0-3-3.6s-7.37,1.16-20.57-2.11C40.47,14.6,42,9.16,36.4,3.59,33.23.42,33.23.42,30.06,3.59Z"/><line class="cls-1" x1="33.23" y1="40.53" x2="33.23" y2="70.14"/><polyline class="cls-1" points="17.38 51.09 33.23 32.08 11.04 28.91"/><polyline class="cls-1" points="49.07 51.09 33.23 32.08 55.41 28.91"/><line class="cls-1" x1="33.23" y1="32.08" x2="33.23" y2="16.23"/><path class="cls-1" d="M349.76,3.34c-5.57,5.57-4.07,11-5.82,15.71a55.67,55.67,0,0,1-20.57,2.12,2.8,2.8,0,0,0-3,3.6c3.73,11.45,9.29,16.82,13.68,19.32a38.69,38.69,0,0,0-3.72,12.45,2.56,2.56,0,0,0,3.33,2.77c19.63-6.45,19.31-18.71,19.31-19,0,.31-.33,12.57,19.31,19a2.56,2.56,0,0,0,3.33-2.77,38.67,38.67,0,0,0-3.73-12.45c4.39-2.5,10-7.87,13.68-19.32a2.8,2.8,0,0,0-3-3.6s-7.37,1.15-20.57-2.12c-1.74-4.69-.24-10.14-5.81-15.71C352.93.17,352.93.17,349.76,3.34Z"/><line class="cls-1" x1="352.93" y1="40.29" x2="352.93" y2="69.9"/><polyline class="cls-1" points="337.08 50.85 352.93 31.83 330.74 28.66"/><polyline class="cls-1" points="368.77 50.85 352.93 31.83 375.11 28.66"/><line class="cls-1" x1="352.93" y1="31.83" x2="352.93" y2="15.98"/><path class="cls-1" d="M669.46,3.46c-5.57,5.57-4.07,11-5.82,15.72a55.54,55.54,0,0,1-20.57,2.11,2.8,2.8,0,0,0-3,3.6c3.73,11.45,9.29,16.82,13.68,19.32A38.85,38.85,0,0,0,650,56.66a2.55,2.55,0,0,0,3.33,2.77c19.63-6.45,19.31-18.71,19.31-19,0,.31-.33,12.57,19.31,19a2.55,2.55,0,0,0,3.33-2.77,38.83,38.83,0,0,0-3.73-12.45c4.39-2.5,10-7.87,13.68-19.32a2.8,2.8,0,0,0-3-3.6s-7.37,1.16-20.57-2.11c-1.74-4.7-.24-10.15-5.81-15.72C672.63.29,672.63.29,669.46,3.46Z"/><line class="cls-1" x1="672.63" y1="40.41" x2="672.63" y2="70.02"/><polyline class="cls-1" points="656.78 50.97 672.63 31.95 650.44 28.78"/><polyline class="cls-1" points="688.47 50.97 672.63 31.95 694.81 28.78"/><line class="cls-1" x1="672.63" y1="31.95" x2="672.63" y2="16.11"/><line class="cls-2" x1="278.73" y1="70.14" x2="278.73" y2="49.23"/><path class="cls-2" d="M253.3,51.8c4.06-24.34,18.16-25.42,18.16-25.42h0a7.26,7.26,0,0,1,7.27,7.26h0S277.64,47.75,253.3,51.8Z"/><path class="cls-2" d="M278.73,51.8c-5.55-7.76-2-11.91-2-11.91h0a2.81,2.81,0,0,1,4,0h0S284.28,44,278.73,51.8Z"/><path class="cls-2" d="M278.73,1c5.55,7.77,2,11.92,2,11.92h0a2.81,2.81,0,0,1-4,0h0S273.18,8.72,278.73,1Z"/><path class="cls-2" d="M253.3,26.38c7.77-5.55,11.92-2,11.92-2h0a2.81,2.81,0,0,1,0,4h0S261.07,31.93,253.3,26.38Z"/><path class="cls-2" d="M304.15,51.8c-24.34-4-25.42-18.16-25.42-18.16h0A7.26,7.26,0,0,1,286,26.38h0S300.1,27.46,304.15,51.8Z"/><path class="cls-2" d="M304.15,1C300.1,25.29,286,26.38,286,26.38h0a7.26,7.26,0,0,1-7.26-7.27h0S279.81,5,304.15,1Z"/><path class="cls-2" d="M253.3,1C277.64,5,278.73,19.11,278.73,19.11h0a7.26,7.26,0,0,1-7.27,7.27h0S257.36,25.29,253.3,1Z"/><path class="cls-2" d="M304.18,26.38c-7.76,5.55-11.92,2-11.92,2h0a2.83,2.83,0,0,1,0-4h0S296.42,20.83,304.18,26.38Z"/><polygon class="cls-3" points="117.31 35.43 101.94 35.43 94.25 29.14 86.56 29.14 82.72 35.43 86.56 41.71 94.25 41.71 101.94 35.43 117.31 35.43"/><polygon class="cls-3" points="117.31 35.3 109.16 43.46 101.75 44.2 97.67 48.28 98.97 53.65 104.34 54.95 108.42 50.87 109.16 43.46 117.31 35.3"/><polygon class="cls-3" points="117.31 35.3 125.47 43.46 126.21 50.87 130.29 54.95 135.66 53.65 136.96 48.28 132.88 44.2 125.47 43.46 117.31 35.3"/><polygon class="cls-3" points="117.31 35.3 125.47 27.15 132.88 26.41 136.96 22.33 135.66 16.96 130.29 15.66 126.21 19.74 125.47 27.15 117.31 35.3"/><polygon class="cls-3" points="117.31 35.3 109.16 27.15 108.42 19.74 104.34 15.66 98.97 16.96 97.67 22.33 101.75 26.41 109.16 27.15 117.31 35.3"/><polygon class="cls-3" points="117.31 35.43 117.31 50.8 111.03 58.49 111.03 66.18 117.31 70.02 123.6 66.18 123.6 58.49 117.31 50.8 117.31 35.43"/><polygon class="cls-3" points="117.31 35.43 132.69 35.43 140.38 41.71 148.06 41.71 151.91 35.43 148.06 29.14 140.38 29.14 132.69 35.43 117.31 35.43"/><polygon class="cls-3" points="117.31 35.43 117.31 20.05 123.6 12.36 123.6 4.67 117.31 0.83 111.03 4.67 111.03 12.36 117.31 20.05 117.31 35.43"/><circle class="cls-4" cx="202.98" cy="35.43" r="19.58" transform="translate(1.65 79.25) rotate(-22.18)"/><path class="cls-4" d="M203.07,15.88l-2.89-2.74a4.35,4.35,0,0,1-1.05-4.78l2.07-5.22a4.34,4.34,0,0,1,1.63-2,4.17,4.17,0,0,1,1.7,2l2.23,5.16a4.35,4.35,0,0,1-.89,4.82Z"/><path class="cls-4" d="M193.29,18.45l-3.87-.93a4.36,4.36,0,0,1-3.31-3.61l-.81-5.55a4.25,4.25,0,0,1,.4-2.58,4.13,4.13,0,0,1,2.45.86L192.66,10a4.35,4.35,0,0,1,1.64,4.62Z"/><path class="cls-4" d="M186.1,25.57l-3.82,1.13a4.35,4.35,0,0,1-4.67-1.48l-3.48-4.4a4.19,4.19,0,0,1-.94-2.43,4.2,4.2,0,0,1,2.56-.48l5.57.64a4.35,4.35,0,0,1,3.73,3.19Z"/><path class="cls-4" d="M183.43,35.33l-2.74,2.89a4.35,4.35,0,0,1-4.78,1.05l-5.22-2.07a4.28,4.28,0,0,1-2-1.63,4.17,4.17,0,0,1,2-1.7l5.16-2.23a4.35,4.35,0,0,1,4.82.89Z"/><path class="cls-4" d="M186,45.12,185.07,49a4.34,4.34,0,0,1-3.61,3.3l-5.55.82a4.25,4.25,0,0,1-2.58-.41,4.13,4.13,0,0,1,.86-2.45l3.35-4.51a4.35,4.35,0,0,1,4.62-1.63Z"/><path class="cls-4" d="M193.12,52.31l1.13,3.81a4.35,4.35,0,0,1-1.48,4.67l-4.4,3.48a4.19,4.19,0,0,1-2.43.94,4.18,4.18,0,0,1-.48-2.55l.64-5.58a4.36,4.36,0,0,1,3.19-3.73Z"/><path class="cls-4" d="M202.88,55l2.89,2.74a4.35,4.35,0,0,1,1,4.78l-2.07,5.22a4.28,4.28,0,0,1-1.63,2,4.17,4.17,0,0,1-1.7-2l-2.23-5.16a4.34,4.34,0,0,1,.89-4.81Z"/><path class="cls-4" d="M212.67,52.4l3.87.93a4.36,4.36,0,0,1,3.3,3.62l.82,5.54a4.25,4.25,0,0,1-.41,2.58,4.13,4.13,0,0,1-2.45-.86l-4.51-3.35a4.33,4.33,0,0,1-1.63-4.61Z"/><path class="cls-4" d="M219.86,45.28l3.81-1.13a4.37,4.37,0,0,1,4.67,1.48l3.48,4.4a4.24,4.24,0,0,1,.94,2.43,4.26,4.26,0,0,1-2.55.49l-5.58-.65a4.37,4.37,0,0,1-3.73-3.18Z"/><path class="cls-4" d="M222.52,35.52l2.74-2.89A4.35,4.35,0,0,1,230,31.58l5.22,2.07a4.34,4.34,0,0,1,2,1.63,4.17,4.17,0,0,1-2,1.7l-5.16,2.23a4.34,4.34,0,0,1-4.81-.89Z"/><path class="cls-4" d="M220,25.74l.93-3.87a4.37,4.37,0,0,1,3.62-3.31l5.54-.81a4.25,4.25,0,0,1,2.58.4,4.13,4.13,0,0,1-.86,2.45l-3.35,4.51a4.34,4.34,0,0,1-4.61,1.64Z"/><path class="cls-4" d="M212.83,18.55l-1.13-3.82a4.35,4.35,0,0,1,1.48-4.67l4.4-3.48A4.24,4.24,0,0,1,220,5.64a4.27,4.27,0,0,1,.49,2.56l-.65,5.57a4.36,4.36,0,0,1-3.18,3.73Z"/><line class="cls-2" x1="598.43" y1="69.9" x2="598.43" y2="48.99"/><path class="cls-2" d="M573,51.56c4.06-24.34,18.16-25.43,18.16-25.43h0a7.27,7.27,0,0,1,7.27,7.27h0S597.35,47.5,573,51.56Z"/><path class="cls-2" d="M598.43,51.56c-5.55-7.77-2-11.92-2-11.92h0a2.81,2.81,0,0,1,4,0h0S604,43.79,598.43,51.56Z"/><path class="cls-2" d="M598.43.71c5.55,7.76,2,11.92,2,11.92h0a2.83,2.83,0,0,1-4,0h0S592.88,8.47,598.43.71Z"/><path class="cls-2" d="M573,26.13c7.77-5.54,11.92-2,11.92-2h0a2.8,2.8,0,0,1,0,4h0S580.77,31.68,573,26.13Z"/><path class="cls-2" d="M623.85,51.56C599.51,47.5,598.43,33.4,598.43,33.4h0a7.27,7.27,0,0,1,7.26-7.27h0S619.8,27.22,623.85,51.56Z"/><path class="cls-2" d="M623.85.71c-4.05,24.34-18.16,25.42-18.16,25.42h0a7.26,7.26,0,0,1-7.26-7.26h0S599.51,4.76,623.85.71Z"/><path class="cls-2" d="M573,.71c24.35,4.05,25.43,18.16,25.43,18.16h0a7.26,7.26,0,0,1-7.27,7.26h0S577.06,25.05,573,.71Z"/><path class="cls-2" d="M623.88,26.14c-7.76,5.54-11.91,2-11.91,2h0a2.8,2.8,0,0,1,0-4h0S616.12,20.59,623.88,26.14Z"/><polygon class="cls-3" points="437.01 35.18 421.64 35.18 413.95 28.89 406.26 28.89 402.42 35.18 406.26 41.47 413.95 41.47 421.64 35.18 437.01 35.18"/><polygon class="cls-3" points="437.01 35.06 428.86 43.21 421.45 43.96 417.37 48.03 418.67 53.41 424.04 54.7 428.12 50.63 428.86 43.21 437.01 35.06"/><polygon class="cls-3" points="437.01 35.06 445.17 43.21 445.91 50.63 449.99 54.7 455.36 53.41 456.66 48.03 452.58 43.96 445.17 43.21 437.01 35.06"/><polygon class="cls-3" points="437.01 35.06 445.17 26.91 452.58 26.16 456.66 22.09 455.36 16.71 449.99 15.42 445.91 19.49 445.17 26.91 437.01 35.06"/><polygon class="cls-3" points="437.01 35.06 428.86 26.91 428.12 19.49 424.04 15.42 418.67 16.71 417.37 22.09 421.45 26.16 428.86 26.91 437.01 35.06"/><polygon class="cls-3" points="437.01 35.18 437.01 50.56 430.73 58.24 430.73 65.93 437.01 69.78 443.3 65.93 443.3 58.24 437.01 50.56 437.01 35.18"/><polygon class="cls-3" points="437.01 35.18 452.39 35.18 460.08 41.47 467.76 41.47 471.61 35.18 467.76 28.89 460.08 28.89 452.39 35.18 437.01 35.18"/><polygon class="cls-3" points="437.01 35.18 437.01 19.81 443.3 12.12 443.3 4.43 437.01 0.59 430.73 4.43 430.73 12.12 437.01 19.81 437.01 35.18"/><circle class="cls-4" cx="522.68" cy="35.18" r="19.58" transform="translate(25.4 199.93) rotate(-22.18)"/><path class="cls-4" d="M522.77,15.64l-2.89-2.74a4.37,4.37,0,0,1-1-4.79L520.9,2.9a4.29,4.29,0,0,1,1.63-2,4.17,4.17,0,0,1,1.7,2L526.46,8a4.35,4.35,0,0,1-.89,4.82Z"/><path class="cls-4" d="M513,18.21l-3.87-.93a4.37,4.37,0,0,1-3.31-3.62L505,8.11a4.21,4.21,0,0,1,.4-2.57,4.18,4.18,0,0,1,2.45.85l4.51,3.35A4.36,4.36,0,0,1,514,14.36Z"/><path class="cls-4" d="M505.8,25.33,502,26.46A4.37,4.37,0,0,1,497.31,25l-3.48-4.4a4.24,4.24,0,0,1-.94-2.43,4.13,4.13,0,0,1,2.56-.49l5.57.65a4.36,4.36,0,0,1,3.73,3.18Z"/><path class="cls-4" d="M503.13,35.09,500.39,38A4.32,4.32,0,0,1,495.61,39L490.39,37a4.3,4.3,0,0,1-2-1.64,4.22,4.22,0,0,1,2-1.7l5.16-2.23a4.37,4.37,0,0,1,4.82.9Z"/><path class="cls-4" d="M505.7,44.87l-.93,3.87a4.33,4.33,0,0,1-3.61,3.3l-5.55.82a4.25,4.25,0,0,1-2.58-.4,4.18,4.18,0,0,1,.86-2.46l3.35-4.5a4.35,4.35,0,0,1,4.62-1.64Z"/><path class="cls-4" d="M512.82,52.06,514,55.88a4.33,4.33,0,0,1-1.48,4.66L508.07,64a4.25,4.25,0,0,1-2.43.94,4.2,4.2,0,0,1-.48-2.56l.64-5.58A4.35,4.35,0,0,1,509,53.11Z"/><path class="cls-4" d="M522.58,54.73l2.89,2.73a4.37,4.37,0,0,1,1,4.79l-2.07,5.21a4.19,4.19,0,0,1-1.63,2,4.07,4.07,0,0,1-1.7-2l-2.23-5.15a4.35,4.35,0,0,1,.89-4.82Z"/><path class="cls-4" d="M532.37,52.16l3.87.92a4.37,4.37,0,0,1,3.3,3.62l.82,5.55a4.25,4.25,0,0,1-.41,2.58A4.19,4.19,0,0,1,537.5,64L533,60.62A4.35,4.35,0,0,1,531.36,56Z"/><path class="cls-4" d="M539.56,45l3.81-1.14A4.36,4.36,0,0,1,548,45.39l3.48,4.39a4.24,4.24,0,0,1,.94,2.43,4.11,4.11,0,0,1-2.55.49l-5.58-.65a4.35,4.35,0,0,1-3.73-3.18Z"/><path class="cls-4" d="M542.22,35.28,545,32.39a4.35,4.35,0,0,1,4.78-1.05L555,33.4A4.31,4.31,0,0,1,557,35a4.17,4.17,0,0,1-2,1.7L549.86,39a4.34,4.34,0,0,1-4.81-.9Z"/><path class="cls-4" d="M539.65,25.49l.93-3.87a4.36,4.36,0,0,1,3.62-3.3l5.54-.82a4.32,4.32,0,0,1,2.58.4,4.15,4.15,0,0,1-.86,2.46l-3.34,4.51a4.35,4.35,0,0,1-4.62,1.63Z"/><path class="cls-4" d="M532.53,18.3l-1.13-3.81a4.37,4.37,0,0,1,1.48-4.67l4.4-3.48a4.24,4.24,0,0,1,2.43-.94A4.23,4.23,0,0,1,540.2,8l-.65,5.58a4.34,4.34,0,0,1-3.18,3.72Z"/><line class="cls-2" x1="918.13" y1="70.02" x2="918.13" y2="49.11"/><path class="cls-2" d="M892.7,51.68c4.06-24.34,18.17-25.42,18.17-25.42h0a7.26,7.26,0,0,1,7.26,7.26h0S917.05,47.63,892.7,51.68Z"/><path class="cls-2" d="M918.13,51.68c-5.55-7.76-2-11.92-2-11.92h0a2.83,2.83,0,0,1,4,0h0S923.68,43.92,918.13,51.68Z"/><path class="cls-2" d="M918.13.83c5.55,7.77,2,11.92,2,11.92h0a2.81,2.81,0,0,1-4,0h0S912.58,8.6,918.13.83Z"/><path class="cls-2" d="M892.7,26.26c7.77-5.55,11.92-2,11.92-2h0a2.8,2.8,0,0,1,0,4h0S900.47,31.8,892.7,26.26Z"/><path class="cls-2" d="M943.56,51.68c-24.35-4-25.43-18.16-25.43-18.16h0a7.26,7.26,0,0,1,7.26-7.26h0S939.5,27.34,943.56,51.68Z"/><path class="cls-2" d="M943.56.83c-4.06,24.34-18.17,25.43-18.17,25.43h0A7.27,7.27,0,0,1,918.13,19h0S919.21,4.89,943.56.83Z"/><path class="cls-2" d="M892.7.83C917.05,4.89,918.13,19,918.13,19h0a7.27,7.27,0,0,1-7.26,7.27h0S896.76,25.17,892.7.83Z"/><path class="cls-2" d="M943.58,26.26c-7.76,5.55-11.91,2-11.91,2h0a2.8,2.8,0,0,1,0-4h0S935.82,20.71,943.58,26.26Z"/><polygon class="cls-3" points="756.71 35.3 741.34 35.3 733.65 29.02 725.96 29.02 722.12 35.3 725.96 41.59 733.65 41.59 741.34 35.3 756.71 35.3"/><polygon class="cls-3" points="756.71 35.18 748.56 43.34 741.15 44.08 737.07 48.16 738.37 53.53 743.74 54.82 747.82 50.75 748.56 43.34 756.71 35.18"/><polygon class="cls-3" points="756.71 35.18 764.87 43.34 765.61 50.75 769.69 54.82 775.06 53.53 776.36 48.16 772.28 44.08 764.87 43.34 756.71 35.18"/><polygon class="cls-3" points="756.71 35.18 764.87 27.03 772.28 26.28 776.36 22.21 775.06 16.84 769.69 15.54 765.61 19.62 764.87 27.03 756.71 35.18"/><polygon class="cls-3" points="756.71 35.18 748.56 27.03 747.82 19.62 743.74 15.54 738.37 16.84 737.07 22.21 741.15 26.28 748.56 27.03 756.71 35.18"/><polygon class="cls-3" points="756.71 35.3 756.71 50.68 750.43 58.37 750.43 66.06 756.71 69.9 763 66.06 763 58.37 756.71 50.68 756.71 35.3"/><polygon class="cls-3" points="756.71 35.3 772.09 35.3 779.78 41.59 787.47 41.59 791.31 35.3 787.47 29.02 779.78 29.02 772.09 35.3 756.71 35.3"/><polygon class="cls-3" points="756.71 35.3 756.71 19.93 763 12.24 763 4.55 756.71 0.71 750.43 4.55 750.43 12.24 756.71 19.93 756.71 35.3"/><circle class="cls-4" cx="842.38" cy="35.3" r="19.58" transform="translate(49.01 320.64) rotate(-22.18)"/><path class="cls-4" d="M842.47,15.76,839.58,13a4.35,4.35,0,0,1-1.05-4.78L840.6,3a4.29,4.29,0,0,1,1.63-2,4.17,4.17,0,0,1,1.7,2l2.23,5.16a4.34,4.34,0,0,1-.89,4.81Z"/><path class="cls-4" d="M832.69,18.33l-3.87-.93a4.37,4.37,0,0,1-3.31-3.62l-.81-5.54a4.25,4.25,0,0,1,.4-2.58,4.18,4.18,0,0,1,2.46.86l4.5,3.34a4.36,4.36,0,0,1,1.64,4.62Z"/><path class="cls-4" d="M825.5,25.45l-3.82,1.13A4.37,4.37,0,0,1,817,25.1l-3.48-4.4a4.24,4.24,0,0,1-.94-2.43,4.27,4.27,0,0,1,2.56-.49l5.57.65a4.36,4.36,0,0,1,3.73,3.18Z"/><path class="cls-4" d="M822.83,35.21l-2.74,2.89a4.35,4.35,0,0,1-4.78,1l-5.22-2.07a4.26,4.26,0,0,1-2-1.63,4.07,4.07,0,0,1,2-1.7l5.15-2.23a4.35,4.35,0,0,1,4.82.89Z"/><path class="cls-4" d="M825.4,45l-.92,3.87a4.38,4.38,0,0,1-3.62,3.31l-5.55.81a4.25,4.25,0,0,1-2.58-.4,4.13,4.13,0,0,1,.86-2.45l3.35-4.51A4.35,4.35,0,0,1,821.56,44Z"/><path class="cls-4" d="M832.52,52.18,833.65,56a4.35,4.35,0,0,1-1.48,4.67l-4.4,3.48a4.19,4.19,0,0,1-2.43.94,4.2,4.2,0,0,1-.48-2.56L825.5,57a4.35,4.35,0,0,1,3.19-3.73Z"/><path class="cls-4" d="M842.28,54.85l2.89,2.74a4.35,4.35,0,0,1,1.05,4.78l-2.07,5.22a4.21,4.21,0,0,1-1.63,2,4.07,4.07,0,0,1-1.7-2l-2.23-5.15a4.35,4.35,0,0,1,.89-4.82Z"/><path class="cls-4" d="M852.07,52.28l3.87.93a4.34,4.34,0,0,1,3.3,3.61l.82,5.55a4.25,4.25,0,0,1-.41,2.58,4.13,4.13,0,0,1-2.45-.86l-4.51-3.35a4.35,4.35,0,0,1-1.63-4.62Z"/><path class="cls-4" d="M859.26,45.16,863.07,44a4.35,4.35,0,0,1,4.67,1.48l3.48,4.4a4.19,4.19,0,0,1,.94,2.43,4.18,4.18,0,0,1-2.55.48L864,52.18A4.36,4.36,0,0,1,860.3,49Z"/><path class="cls-4" d="M861.92,35.4l2.74-2.89a4.35,4.35,0,0,1,4.78-1l5.22,2.07a4.23,4.23,0,0,1,2,1.63,4.17,4.17,0,0,1-2,1.7l-5.16,2.23a4.34,4.34,0,0,1-4.81-.89Z"/><path class="cls-4" d="M859.35,25.61l.93-3.87a4.36,4.36,0,0,1,3.62-3.3l5.54-.82A4.25,4.25,0,0,1,872,18a4.13,4.13,0,0,1-.86,2.45L867.82,25a4.35,4.35,0,0,1-4.62,1.63Z"/><path class="cls-4" d="M852.23,18.42l-1.13-3.81a4.37,4.37,0,0,1,1.48-4.67L857,6.46a4.24,4.24,0,0,1,2.43-.94,4.18,4.18,0,0,1,.49,2.55l-.65,5.58a4.37,4.37,0,0,1-3.18,3.73Z"/><line class="cls-2" x1="1237.83" y1="70.28" x2="1237.83" y2="49.36"/><path class="cls-2" d="M1212.4,51.94c4.06-24.34,18.17-25.43,18.17-25.43h0a7.26,7.26,0,0,1,7.26,7.27h0S1236.75,47.88,1212.4,51.94Z"/><path class="cls-2" d="M1237.83,51.94c-5.55-7.77-2-11.92-2-11.92h0a2.81,2.81,0,0,1,4,0h0S1243.38,44.17,1237.83,51.94Z"/><path class="cls-2" d="M1237.83,1.09c5.55,7.76,2,11.92,2,11.92h0a2.83,2.83,0,0,1-4,0h0S1232.28,8.85,1237.83,1.09Z"/><path class="cls-2" d="M1212.4,26.51c7.77-5.55,11.92-2,11.92-2h0a2.8,2.8,0,0,1,0,4h0S1220.17,32.06,1212.4,26.51Z"/><path class="cls-2" d="M1263.26,51.94c-24.35-4.06-25.43-18.16-25.43-18.16h0a7.26,7.26,0,0,1,7.26-7.27h0S1259.2,27.6,1263.26,51.94Z"/><path class="cls-2" d="M1263.26,1.09c-4.06,24.34-18.17,25.42-18.17,25.42h0a7.26,7.26,0,0,1-7.26-7.26h0S1238.91,5.14,1263.26,1.09Z"/><path class="cls-2" d="M1212.4,1.09c24.35,4.05,25.43,18.16,25.43,18.16h0a7.26,7.26,0,0,1-7.26,7.26h0S1216.46,25.43,1212.4,1.09Z"/><path class="cls-2" d="M1263.28,26.51c-7.76,5.55-11.91,2-11.91,2h0a2.8,2.8,0,0,1,0-4h0S1255.52,21,1263.28,26.51Z"/><polygon class="cls-3" points="1076.41 35.56 1061.04 35.56 1053.35 29.27 1045.66 29.27 1041.82 35.56 1045.66 41.85 1053.35 41.85 1061.04 35.56 1076.41 35.56"/><polygon class="cls-3" points="1076.41 35.44 1068.26 43.59 1060.85 44.34 1056.77 48.41 1058.07 53.78 1063.44 55.08 1067.52 51 1068.26 43.59 1076.41 35.44"/><polygon class="cls-3" points="1076.41 35.44 1084.57 43.59 1085.31 51 1089.39 55.08 1094.76 53.78 1096.06 48.41 1091.98 44.34 1084.57 43.59 1076.41 35.44"/><polygon class="cls-3" points="1076.41 35.44 1084.57 27.28 1091.98 26.54 1096.06 22.46 1094.76 17.09 1089.39 15.79 1085.31 19.87 1084.57 27.28 1076.41 35.44"/><polygon class="cls-3" points="1076.41 35.44 1068.26 27.28 1067.52 19.87 1063.44 15.79 1058.07 17.09 1056.77 22.46 1060.85 26.54 1068.26 27.28 1076.41 35.44"/><polygon class="cls-3" points="1076.41 35.56 1076.41 50.94 1070.13 58.62 1070.13 66.31 1076.41 70.16 1082.7 66.31 1082.7 58.62 1076.41 50.94 1076.41 35.56"/><polygon class="cls-3" points="1076.41 35.56 1091.79 35.56 1099.48 41.85 1107.17 41.85 1111.01 35.56 1107.17 29.27 1099.48 29.27 1091.79 35.56 1076.41 35.56"/><polygon class="cls-3" points="1076.41 35.56 1076.41 20.18 1082.7 12.5 1082.7 4.81 1076.41 0.96 1070.13 4.81 1070.13 12.5 1076.41 20.18 1076.41 35.56"/><circle class="cls-4" cx="1162.08" cy="35.56" r="19.58" transform="translate(72.57 441.35) rotate(-22.18)"/><path class="cls-4" d="M1162.17,16l-2.89-2.73a4.37,4.37,0,0,1-1-4.79l2.07-5.21a4.24,4.24,0,0,1,1.63-2,4.17,4.17,0,0,1,1.7,2l2.23,5.15a4.35,4.35,0,0,1-.89,4.82Z"/><path class="cls-4" d="M1152.39,18.58l-3.87-.92a4.37,4.37,0,0,1-3.31-3.62l-.81-5.55a4.21,4.21,0,0,1,.4-2.57,4.17,4.17,0,0,1,2.46.85l4.5,3.35a4.36,4.36,0,0,1,1.64,4.62Z"/><path class="cls-4" d="M1145.2,25.7l-3.82,1.14a4.36,4.36,0,0,1-4.67-1.49L1133.23,21a4.24,4.24,0,0,1-.94-2.43,4.13,4.13,0,0,1,2.56-.49l5.57.65a4.34,4.34,0,0,1,3.73,3.18Z"/><path class="cls-4" d="M1142.53,35.46l-2.74,2.89a4.35,4.35,0,0,1-4.78,1l-5.21-2.06a4.26,4.26,0,0,1-2-1.64,4.07,4.07,0,0,1,2-1.7l5.15-2.23a4.36,4.36,0,0,1,4.82.9Z"/><path class="cls-4" d="M1145.1,45.25l-.92,3.87a4.37,4.37,0,0,1-3.62,3.3l-5.55.82a4.25,4.25,0,0,1-2.58-.4,4.15,4.15,0,0,1,.86-2.46l3.35-4.51a4.35,4.35,0,0,1,4.62-1.63Z"/><path class="cls-4" d="M1152.22,52.44l1.13,3.81a4.35,4.35,0,0,1-1.48,4.67l-4.39,3.48a4.24,4.24,0,0,1-2.44.94,4.15,4.15,0,0,1-.48-2.55l.64-5.58a4.34,4.34,0,0,1,3.19-3.72Z"/><path class="cls-4" d="M1162,55.11l2.89,2.73a4.37,4.37,0,0,1,1.05,4.79l-2.07,5.21a1.69,1.69,0,1,1-3.33.06l-2.23-5.15a4.35,4.35,0,0,1,.89-4.82Z"/><path class="cls-4" d="M1171.77,52.54l3.87.92a4.36,4.36,0,0,1,3.3,3.62l.82,5.55a4.29,4.29,0,0,1-.4,2.57,4.19,4.19,0,0,1-2.46-.85L1172.39,61a4.35,4.35,0,0,1-1.63-4.62Z"/><path class="cls-4" d="M1179,45.42l3.81-1.14a4.35,4.35,0,0,1,4.67,1.49l3.48,4.39a4.24,4.24,0,0,1,.94,2.43,4.11,4.11,0,0,1-2.55.49l-5.58-.65a4.35,4.35,0,0,1-3.73-3.18Z"/><path class="cls-4" d="M1181.62,35.66l2.74-2.89a4.35,4.35,0,0,1,4.78-1.05l5.22,2.06a4.25,4.25,0,0,1,2,1.64,4.22,4.22,0,0,1-2,1.7l-5.16,2.23a4.36,4.36,0,0,1-4.81-.9Z"/><path class="cls-4" d="M1179.05,25.87,1180,22a4.36,4.36,0,0,1,3.62-3.3l5.54-.82a4.25,4.25,0,0,1,2.58.4,4.18,4.18,0,0,1-.86,2.46l-3.34,4.5a4.34,4.34,0,0,1-4.62,1.64Z"/><path class="cls-4" d="M1171.93,18.68l-1.13-3.81a4.37,4.37,0,0,1,1.48-4.67l4.4-3.49a4.38,4.38,0,0,1,2.43-.94,4.2,4.2,0,0,1,.49,2.56l-.65,5.58a4.35,4.35,0,0,1-3.18,3.72Z"/><path class="cls-1" d="M990.69,536.87c-5.57,5.58-4.07,11-5.82,15.72a55.49,55.49,0,0,1-20.56,2.11,2.8,2.8,0,0,0-3,3.6c3.72,11.45,9.28,16.83,13.68,19.32a38.58,38.58,0,0,0-3.73,12.45,2.55,2.55,0,0,0,3.33,2.77c19.63-6.45,19.31-18.71,19.31-19,0,.31-.32,12.57,19.31,19a2.55,2.55,0,0,0,3.33-2.77,38.58,38.58,0,0,0-3.73-12.45c4.4-2.49,10-7.87,13.68-19.32a2.8,2.8,0,0,0-3-3.6s-7.36,1.16-20.56-2.11c-1.75-4.7-.25-10.14-5.82-15.72C993.86,533.7,993.86,533.7,990.69,536.87Z"/><line class="cls-1" x1="993.86" y1="573.82" x2="993.86" y2="603.43"/><polyline class="cls-1" points="978.01 584.38 993.86 565.36 971.67 562.2"/><polyline class="cls-1" points="1009.71 584.38 993.86 565.36 1016.05 562.2"/><line class="cls-1" x1="993.86" y1="565.36" x2="993.86" y2="549.52"/><path class="cls-1" d="M31.59,536.74c-5.57,5.57-4.07,11-5.82,15.71a55.62,55.62,0,0,1-20.56,2.12,2.79,2.79,0,0,0-3,3.6c3.72,11.45,9.28,16.82,13.68,19.32a38.43,38.43,0,0,0-3.73,12.45,2.56,2.56,0,0,0,3.33,2.77c19.63-6.45,19.31-18.71,19.31-19,0,.31-.32,12.57,19.31,19a2.56,2.56,0,0,0,3.33-2.77,38.43,38.43,0,0,0-3.73-12.45c4.4-2.5,10-7.87,13.68-19.32a2.79,2.79,0,0,0-3-3.6s-7.36,1.15-20.56-2.12c-1.75-4.69-.25-10.14-5.82-15.71C34.76,533.57,34.76,533.57,31.59,536.74Z"/><line class="cls-1" x1="34.76" y1="573.69" x2="34.76" y2="603.3"/><polyline class="cls-1" points="18.91 584.25 34.76 565.23 12.57 562.06"/><polyline class="cls-1" points="50.61 584.25 34.76 565.23 56.95 562.06"/><line class="cls-1" x1="34.76" y1="565.23" x2="34.76" y2="549.38"/><path class="cls-1" d="M351.29,536.5c-5.57,5.57-4.07,11-5.82,15.71a55.49,55.49,0,0,1-20.56,2.11,2.8,2.8,0,0,0-3,3.6c3.72,11.46,9.28,16.83,13.68,19.33a38.43,38.43,0,0,0-3.73,12.45,2.56,2.56,0,0,0,3.33,2.77c19.63-6.46,19.31-18.71,19.31-19,0,.32-.32,12.57,19.31,19a2.56,2.56,0,0,0,3.33-2.77,38.43,38.43,0,0,0-3.73-12.45c4.4-2.5,10-7.87,13.68-19.33a2.8,2.8,0,0,0-3-3.6s-7.36,1.16-20.56-2.11c-1.75-4.7-.25-10.14-5.82-15.71C354.46,533.33,354.46,533.33,351.29,536.5Z"/><line class="cls-1" x1="354.46" y1="573.44" x2="354.46" y2="603.05"/><polyline class="cls-1" points="338.61 584 354.46 564.99 332.27 561.82"/><polyline class="cls-1" points="370.31 584 354.46 564.99 376.64 561.82"/><line class="cls-1" x1="354.46" y1="564.99" x2="354.46" y2="549.14"/><path class="cls-1" d="M671,536.62c-5.57,5.57-4.07,11-5.82,15.71a55.49,55.49,0,0,1-20.56,2.11,2.8,2.8,0,0,0-3,3.61c3.72,11.45,9.28,16.82,13.68,19.32a38.43,38.43,0,0,0-3.73,12.45,2.56,2.56,0,0,0,3.33,2.77c19.63-6.46,19.31-18.71,19.31-19,0,.31-.32,12.56,19.31,19a2.56,2.56,0,0,0,3.33-2.77,38.43,38.43,0,0,0-3.73-12.45c4.4-2.5,10-7.87,13.68-19.32a2.8,2.8,0,0,0-3-3.61s-7.36,1.16-20.56-2.11c-1.75-4.7-.25-10.14-5.82-15.71C674.16,533.45,674.16,533.45,671,536.62Z"/><line class="cls-1" x1="674.16" y1="573.57" x2="674.16" y2="603.18"/><polyline class="cls-1" points="658.31 584.13 674.16 565.11 651.97 561.94"/><polyline class="cls-1" points="690.01 584.13 674.16 565.11 696.35 561.94"/><line class="cls-1" x1="674.16" y1="565.11" x2="674.16" y2="549.26"/><line class="cls-2" x1="280.26" y1="603.3" x2="280.26" y2="582.38"/><path class="cls-2" d="M254.84,585c4-24.34,18.16-25.43,18.16-25.43h0a7.27,7.27,0,0,1,7.26,7.27h0S279.18,580.9,254.84,585Z"/><path class="cls-2" d="M280.26,585c-5.55-7.77-2-11.92-2-11.92h0a2.8,2.8,0,0,1,4,0h0S285.81,577.19,280.26,585Z"/><path class="cls-2" d="M280.26,534.11c5.55,7.76,2,11.92,2,11.92h0a2.82,2.82,0,0,1-4,0h0S274.71,541.87,280.26,534.11Z"/><path class="cls-2" d="M254.84,559.53c7.76-5.54,11.92-2,11.92-2h0a2.82,2.82,0,0,1,0,4h0S262.6,565.08,254.84,559.53Z"/><path class="cls-2" d="M305.69,585c-24.34-4.06-25.43-18.16-25.43-18.16h0a7.27,7.27,0,0,1,7.27-7.27h0S301.63,560.62,305.69,585Z"/><path class="cls-2" d="M305.69,534.11c-4.06,24.34-18.16,25.42-18.16,25.42h0a7.26,7.26,0,0,1-7.27-7.26h0S281.35,538.16,305.69,534.11Z"/><path class="cls-2" d="M254.84,534.11c24.34,4,25.42,18.16,25.42,18.16h0a7.26,7.26,0,0,1-7.26,7.26h0S258.89,558.45,254.84,534.11Z"/><path class="cls-2" d="M305.72,559.53c-7.77,5.55-11.92,2-11.92,2h0a2.8,2.8,0,0,1,0-4h0S298,554,305.72,559.53Z"/><polygon class="cls-3" points="118.85 568.58 103.47 568.58 95.78 562.29 88.09 562.29 84.25 568.58 88.09 574.87 95.78 574.87 103.47 568.58 118.85 568.58"/><polygon class="cls-3" points="118.85 568.46 110.69 576.61 103.28 577.36 99.2 581.43 100.5 586.81 105.87 588.1 109.95 584.02 110.69 576.61 118.85 568.46"/><polygon class="cls-3" points="118.85 568.46 127 576.61 127.74 584.02 131.82 588.1 137.19 586.81 138.49 581.43 134.41 577.36 127 576.61 118.85 568.46"/><polygon class="cls-3" points="118.85 568.46 127 560.3 134.41 559.56 138.49 555.48 137.19 550.11 131.82 548.82 127.74 552.89 127 560.3 118.85 568.46"/><polygon class="cls-3" points="118.85 568.46 110.69 560.3 109.95 552.89 105.87 548.82 100.5 550.11 99.2 555.48 103.28 559.56 110.69 560.3 118.85 568.46"/><polygon class="cls-3" points="118.85 568.58 118.85 583.96 112.56 591.64 112.56 599.33 118.85 603.18 125.13 599.33 125.13 591.64 118.85 583.96 118.85 568.58"/><polygon class="cls-3" points="118.85 568.58 134.22 568.58 141.91 574.87 149.6 574.87 153.44 568.58 149.6 562.29 141.91 562.29 134.22 568.58 118.85 568.58"/><polygon class="cls-3" points="118.85 568.58 118.85 553.21 125.13 545.52 125.13 537.83 118.85 533.99 112.56 537.83 112.56 545.52 118.85 553.21 118.85 568.58"/><circle class="cls-4" cx="204.51" cy="568.58" r="19.58" transform="translate(-199.52 119.29) rotate(-22.18)"/><path class="cls-4" d="M204.61,549l-2.89-2.73a4.34,4.34,0,0,1-1.05-4.79l2.06-5.21a4.21,4.21,0,0,1,1.64-2,4.22,4.22,0,0,1,1.7,2l2.23,5.15a4.37,4.37,0,0,1-.9,4.82Z"/><path class="cls-4" d="M194.82,551.61l-3.87-.93a4.34,4.34,0,0,1-3.3-3.62l-.82-5.55a4.21,4.21,0,0,1,.4-2.57,4.23,4.23,0,0,1,2.46.85l4.5,3.35a4.36,4.36,0,0,1,1.64,4.62Z"/><path class="cls-4" d="M187.63,558.72l-3.82,1.14a4.34,4.34,0,0,1-4.66-1.49L175.66,554a4.31,4.31,0,0,1-.94-2.43,4.13,4.13,0,0,1,2.56-.49l5.58.65a4.34,4.34,0,0,1,3.72,3.18Z"/><path class="cls-4" d="M185,568.48l-2.73,2.89a4.37,4.37,0,0,1-4.79,1l-5.21-2.06a1.7,1.7,0,1,1-.06-3.34l5.15-2.23a4.37,4.37,0,0,1,4.82.9Z"/><path class="cls-4" d="M187.53,578.27l-.92,3.87a4.35,4.35,0,0,1-3.62,3.3l-5.55.82a4.21,4.21,0,0,1-2.57-.4,4.17,4.17,0,0,1,.85-2.46l3.35-4.5a4.34,4.34,0,0,1,4.62-1.64Z"/><path class="cls-4" d="M194.65,585.46l1.14,3.82a4.34,4.34,0,0,1-1.49,4.66l-4.39,3.49a4.31,4.31,0,0,1-2.43.94,4.13,4.13,0,0,1-.49-2.56l.65-5.58a4.34,4.34,0,0,1,3.18-3.72Z"/><path class="cls-4" d="M204.41,588.13l2.89,2.73a4.37,4.37,0,0,1,1,4.79l-2.06,5.21a4.26,4.26,0,0,1-1.64,2,4.17,4.17,0,0,1-1.7-2l-2.23-5.15a4.35,4.35,0,0,1,.9-4.82Z"/><path class="cls-4" d="M214.2,585.56l3.87.92a4.37,4.37,0,0,1,3.3,3.62l.82,5.55a4.29,4.29,0,0,1-.4,2.57,4.14,4.14,0,0,1-2.46-.85L214.82,594a4.35,4.35,0,0,1-1.63-4.62Z"/><path class="cls-4" d="M221.39,578.44l3.81-1.14a4.35,4.35,0,0,1,4.67,1.49l3.48,4.39a4.24,4.24,0,0,1,.94,2.43,4.09,4.09,0,0,1-2.55.49l-5.58-.65a4.33,4.33,0,0,1-3.72-3.18Z"/><path class="cls-4" d="M224.05,568.68l2.74-2.89a4.37,4.37,0,0,1,4.79-1l5.21,2.06a4.26,4.26,0,0,1,2,1.64,4.17,4.17,0,0,1-2,1.7l-5.15,2.23a4.35,4.35,0,0,1-4.82-.9Z"/><path class="cls-4" d="M221.48,558.89l.93-3.87a4.36,4.36,0,0,1,3.62-3.3l5.55-.82a1.7,1.7,0,1,1,1.72,2.86L230,558.27a4.35,4.35,0,0,1-4.62,1.63Z"/><path class="cls-4" d="M214.37,551.7l-1.14-3.81a4.37,4.37,0,0,1,1.48-4.67l4.4-3.48a4.24,4.24,0,0,1,2.43-.94,4.09,4.09,0,0,1,.49,2.55l-.65,5.58a4.33,4.33,0,0,1-3.18,3.72Z"/><line class="cls-2" x1="599.96" y1="603.05" x2="599.96" y2="582.14"/><path class="cls-2" d="M574.54,584.71c4.05-24.34,18.16-25.42,18.16-25.42h0a7.26,7.26,0,0,1,7.26,7.26h0S598.88,580.66,574.54,584.71Z"/><path class="cls-2" d="M600,584.71c-5.55-7.76-2-11.91-2-11.91h0a2.8,2.8,0,0,1,4,0h0S605.51,577,600,584.71Z"/><path class="cls-2" d="M600,533.86c5.55,7.77,2,11.92,2,11.92h0a2.8,2.8,0,0,1-4,0h0S594.41,541.63,600,533.86Z"/><path class="cls-2" d="M574.54,559.29c7.76-5.55,11.92-2,11.92-2h0a2.83,2.83,0,0,1,0,4h0S582.3,564.84,574.54,559.29Z"/><path class="cls-2" d="M625.39,584.71C601.05,580.66,600,566.55,600,566.55h0a7.26,7.26,0,0,1,7.27-7.26h0S621.33,560.37,625.39,584.71Z"/><path class="cls-2" d="M625.39,533.86c-4.06,24.34-18.16,25.43-18.16,25.43h0A7.26,7.26,0,0,1,600,552h0S601.05,537.92,625.39,533.86Z"/><path class="cls-2" d="M574.54,533.86C598.88,537.92,600,552,600,552h0a7.26,7.26,0,0,1-7.26,7.27h0S578.59,558.2,574.54,533.86Z"/><path class="cls-2" d="M625.42,559.29c-7.77,5.55-11.92,2-11.92,2h0a2.81,2.81,0,0,1,0-4h0S617.65,553.74,625.42,559.29Z"/><polygon class="cls-3" points="438.55 568.34 423.17 568.34 415.48 562.05 407.8 562.05 403.95 568.34 407.8 574.62 415.48 574.62 423.17 568.34 438.55 568.34"/><polygon class="cls-3" points="438.55 568.21 430.39 576.37 422.98 577.11 418.9 581.19 420.2 586.56 425.57 587.86 429.65 583.78 430.39 576.37 438.55 568.21"/><polygon class="cls-3" points="438.55 568.21 446.7 576.37 447.44 583.78 451.52 587.86 456.89 586.56 458.19 581.19 454.11 577.11 446.7 576.37 438.55 568.21"/><polygon class="cls-3" points="438.55 568.21 446.7 560.06 454.11 559.32 458.19 555.24 456.89 549.87 451.52 548.57 447.44 552.65 446.7 560.06 438.55 568.21"/><polygon class="cls-3" points="438.55 568.21 430.39 560.06 429.65 552.65 425.57 548.57 420.2 549.87 418.9 555.24 422.98 559.32 430.39 560.06 438.55 568.21"/><polygon class="cls-3" points="438.55 568.34 438.55 583.71 432.26 591.4 432.26 599.09 438.55 602.93 444.83 599.09 444.83 591.4 438.55 583.71 438.55 568.34"/><polygon class="cls-3" points="438.55 568.34 453.92 568.34 461.61 574.62 469.3 574.62 473.14 568.34 469.3 562.05 461.61 562.05 453.92 568.34 438.55 568.34"/><polygon class="cls-3" points="438.55 568.34 438.55 552.96 444.83 545.27 444.83 537.59 438.55 533.74 432.26 537.59 432.26 545.27 438.55 552.96 438.55 568.34"/><circle class="cls-4" cx="524.21" cy="568.34" r="19.58" transform="translate(-175.77 239.96) rotate(-22.18)"/><path class="cls-4" d="M524.31,548.79l-2.89-2.74a4.32,4.32,0,0,1-1-4.78l2.06-5.22a4.23,4.23,0,0,1,1.64-2,4.13,4.13,0,0,1,1.7,2l2.23,5.15a4.37,4.37,0,0,1-.9,4.82Z"/><path class="cls-4" d="M514.52,551.36l-3.87-.93a4.33,4.33,0,0,1-3.3-3.61l-.82-5.55a4.25,4.25,0,0,1,.4-2.58,4.18,4.18,0,0,1,2.46.86l4.5,3.35a4.34,4.34,0,0,1,1.64,4.62Z"/><path class="cls-4" d="M507.33,558.48l-3.82,1.13a4.34,4.34,0,0,1-4.66-1.48l-3.49-4.4a4.25,4.25,0,0,1-.94-2.43,4.2,4.2,0,0,1,2.56-.48l5.58.64a4.35,4.35,0,0,1,3.72,3.19Z"/><path class="cls-4" d="M504.66,568.24l-2.73,2.89a4.37,4.37,0,0,1-4.79,1l-5.21-2.07a1.69,1.69,0,1,1-.06-3.33l5.15-2.23a4.35,4.35,0,0,1,4.82.89Z"/><path class="cls-4" d="M507.23,578l-.92,3.87a4.37,4.37,0,0,1-3.62,3.3l-5.55.82a4.22,4.22,0,0,1-2.57-.41,4.11,4.11,0,0,1,.85-2.45l3.35-4.51a4.35,4.35,0,0,1,4.62-1.63Z"/><path class="cls-4" d="M514.35,585.22l1.14,3.81A4.36,4.36,0,0,1,514,593.7l-4.39,3.48a4.24,4.24,0,0,1-2.43.94,4.11,4.11,0,0,1-.49-2.55l.65-5.58a4.35,4.35,0,0,1,3.18-3.73Z"/><path class="cls-4" d="M524.11,587.88l2.89,2.74a4.35,4.35,0,0,1,1,4.78L526,600.62a4.31,4.31,0,0,1-1.64,2,4.17,4.17,0,0,1-1.7-2l-2.23-5.16a4.34,4.34,0,0,1,.9-4.81Z"/><path class="cls-4" d="M533.9,585.31l3.87.93a4.36,4.36,0,0,1,3.3,3.62l.82,5.54a4.32,4.32,0,0,1-.4,2.58,4.15,4.15,0,0,1-2.46-.86l-4.51-3.34a4.35,4.35,0,0,1-1.63-4.62Z"/><path class="cls-4" d="M541.09,578.19l3.81-1.13a4.37,4.37,0,0,1,4.67,1.48l3.48,4.4a1.69,1.69,0,1,1-1.61,2.92l-5.58-.65a4.34,4.34,0,0,1-3.72-3.18Z"/><path class="cls-4" d="M543.76,568.43l2.73-2.89a4.37,4.37,0,0,1,4.79-1l5.21,2.07a4.24,4.24,0,0,1,2,1.63,4.17,4.17,0,0,1-2,1.7l-5.15,2.23a4.35,4.35,0,0,1-4.82-.89Z"/><path class="cls-4" d="M541.18,558.65l.93-3.87a4.37,4.37,0,0,1,3.62-3.31l5.55-.81a1.69,1.69,0,1,1,1.72,2.85L549.65,558a4.36,4.36,0,0,1-4.62,1.64Z"/><path class="cls-4" d="M534.07,551.46l-1.14-3.82a4.36,4.36,0,0,1,1.49-4.67l4.39-3.48a4.24,4.24,0,0,1,2.43-.94,4.13,4.13,0,0,1,.49,2.56l-.65,5.57a4.34,4.34,0,0,1-3.18,3.73Z"/><line class="cls-2" x1="919.66" y1="603.18" x2="919.66" y2="582.26"/><path class="cls-2" d="M894.24,584.84c4-24.34,18.16-25.43,18.16-25.43h0a7.26,7.26,0,0,1,7.26,7.27h0S918.58,580.78,894.24,584.84Z"/><path class="cls-2" d="M919.66,584.84c-5.55-7.77-2-11.92-2-11.92h0a2.8,2.8,0,0,1,4,0h0S925.21,577.07,919.66,584.84Z"/><path class="cls-2" d="M919.66,534c5.55,7.76,2,11.91,2,11.91h0a2.8,2.8,0,0,1-4,0h0S914.12,541.75,919.66,534Z"/><path class="cls-2" d="M894.24,559.41c7.76-5.55,11.92-2,11.92-2h0a2.83,2.83,0,0,1,0,4h0S902,565,894.24,559.41Z"/><path class="cls-2" d="M945.09,584.84c-24.34-4.06-25.43-18.16-25.43-18.16h0a7.26,7.26,0,0,1,7.27-7.27h0S941,560.5,945.09,584.84Z"/><path class="cls-2" d="M945.09,534c-4.06,24.34-18.16,25.42-18.16,25.42h0a7.26,7.26,0,0,1-7.27-7.26h0S920.75,538,945.09,534Z"/><path class="cls-2" d="M894.24,534c24.34,4,25.42,18.16,25.42,18.16h0a7.26,7.26,0,0,1-7.26,7.26h0S898.29,558.33,894.24,534Z"/><path class="cls-2" d="M945.12,559.41c-7.77,5.55-11.92,2-11.92,2h0a2.8,2.8,0,0,1,0-4h0S937.35,553.87,945.12,559.41Z"/><polygon class="cls-3" points="758.25 568.46 742.87 568.46 735.18 562.17 727.5 562.17 723.65 568.46 727.5 574.75 735.18 574.75 742.87 568.46 758.25 568.46"/><polygon class="cls-3" points="758.25 568.34 750.09 576.49 742.68 577.23 738.61 581.31 739.9 586.68 745.27 587.98 749.35 583.9 750.09 576.49 758.25 568.34"/><polygon class="cls-3" points="758.25 568.34 766.4 576.49 767.14 583.9 771.22 587.98 776.59 586.68 777.89 581.31 773.81 577.23 766.4 576.49 758.25 568.34"/><polygon class="cls-3" points="758.25 568.34 766.4 560.18 773.81 559.44 777.89 555.36 776.59 549.99 771.22 548.69 767.14 552.77 766.4 560.18 758.25 568.34"/><polygon class="cls-3" points="758.25 568.34 750.09 560.18 749.35 552.77 745.27 548.69 739.9 549.99 738.61 555.36 742.68 559.44 750.09 560.18 758.25 568.34"/><polygon class="cls-3" points="758.25 568.46 758.25 583.83 751.96 591.52 751.96 599.21 758.25 603.05 764.53 599.21 764.53 591.52 758.25 583.83 758.25 568.46"/><polygon class="cls-3" points="758.25 568.46 773.62 568.46 781.31 574.75 789 574.75 792.84 568.46 789 562.17 781.31 562.17 773.62 568.46 758.25 568.46"/><polygon class="cls-3" points="758.25 568.46 758.25 553.08 764.53 545.39 764.53 537.71 758.25 533.86 751.96 537.71 751.96 545.39 758.25 553.08 758.25 568.46"/><circle class="cls-4" cx="843.91" cy="568.46" r="19.58" transform="translate(-152.16 360.67) rotate(-22.18)"/><path class="cls-4" d="M844,548.91l-2.89-2.73a4.37,4.37,0,0,1-1-4.79l2.06-5.21a4.21,4.21,0,0,1,1.64-2,4.13,4.13,0,0,1,1.7,2l2.23,5.15a4.37,4.37,0,0,1-.9,4.82Z"/><path class="cls-4" d="M834.22,551.48l-3.87-.92a4.37,4.37,0,0,1-3.3-3.62l-.82-5.55a1.7,1.7,0,1,1,2.86-1.72l4.5,3.35a4.34,4.34,0,0,1,1.64,4.62Z"/><path class="cls-4" d="M827,558.6l-3.82,1.14a4.34,4.34,0,0,1-4.66-1.49l-3.49-4.39a4.38,4.38,0,0,1-.94-2.43,4.13,4.13,0,0,1,2.56-.49l5.58.65a4.34,4.34,0,0,1,3.72,3.18Z"/><path class="cls-4" d="M824.36,568.36l-2.73,2.89a4.37,4.37,0,0,1-4.79,1l-5.21-2.06a4.26,4.26,0,0,1-2-1.64,4.17,4.17,0,0,1,2-1.7l5.15-2.23a4.34,4.34,0,0,1,4.82.9Z"/><path class="cls-4" d="M826.93,578.15,826,582a4.37,4.37,0,0,1-3.62,3.3l-5.55.82a4.29,4.29,0,0,1-2.57-.4,4.14,4.14,0,0,1,.85-2.46l3.35-4.51a4.35,4.35,0,0,1,4.62-1.63Z"/><path class="cls-4" d="M834.05,585.34l1.14,3.81a4.35,4.35,0,0,1-1.49,4.67l-4.39,3.48a4.24,4.24,0,0,1-2.43.94,4.09,4.09,0,0,1-.49-2.55l.65-5.58a4.33,4.33,0,0,1,3.18-3.72Z"/><path class="cls-4" d="M843.81,588l2.89,2.74a4.37,4.37,0,0,1,1,4.79l-2.06,5.21a4.31,4.31,0,0,1-1.64,2,4.17,4.17,0,0,1-1.7-2l-2.23-5.15a4.35,4.35,0,0,1,.9-4.82Z"/><path class="cls-4" d="M853.6,585.43l3.87.93a4.36,4.36,0,0,1,3.3,3.62l.82,5.55a1.7,1.7,0,1,1-2.86,1.72l-4.51-3.35a4.35,4.35,0,0,1-1.63-4.62Z"/><path class="cls-4" d="M860.79,578.31l3.81-1.13a4.37,4.37,0,0,1,4.67,1.48l3.48,4.4a4.24,4.24,0,0,1,.94,2.43,4.09,4.09,0,0,1-2.55.49l-5.58-.65a4.34,4.34,0,0,1-3.72-3.18Z"/><path class="cls-4" d="M863.46,568.55l2.73-2.88a4.34,4.34,0,0,1,4.79-1l5.21,2.06a1.7,1.7,0,1,1,.06,3.34l-5.15,2.22a4.35,4.35,0,0,1-4.82-.89Z"/><path class="cls-4" d="M860.88,558.77l.93-3.87a4.34,4.34,0,0,1,3.62-3.3l5.55-.82a1.7,1.7,0,1,1,1.72,2.86l-3.35,4.5a4.36,4.36,0,0,1-4.62,1.64Z"/><path class="cls-4" d="M853.77,551.58l-1.14-3.82a4.34,4.34,0,0,1,1.49-4.66l4.39-3.49a4.31,4.31,0,0,1,2.43-.94,4.13,4.13,0,0,1,.49,2.56l-.65,5.58a4.34,4.34,0,0,1-3.18,3.72Z"/><line class="cls-2" x1="1239.36" y1="603.43" x2="1239.36" y2="582.52"/><path class="cls-2" d="M1213.94,585.09c4-24.34,18.16-25.42,18.16-25.42h0a7.26,7.26,0,0,1,7.26,7.26h0S1238.28,581,1213.94,585.09Z"/><path class="cls-2" d="M1239.36,585.09c-5.54-7.76-2-11.92-2-11.92h0a2.82,2.82,0,0,1,4,0h0S1244.91,577.33,1239.36,585.09Z"/><path class="cls-2" d="M1239.36,534.24c5.55,7.77,2,11.92,2,11.92h0a2.8,2.8,0,0,1-4,0h0S1233.82,542,1239.36,534.24Z"/><path class="cls-2" d="M1213.94,559.67c7.76-5.55,11.92-2,11.92-2h0a2.82,2.82,0,0,1,0,4h0S1221.7,565.21,1213.94,559.67Z"/><path class="cls-2" d="M1264.79,585.09c-24.34-4.05-25.43-18.16-25.43-18.16h0a7.27,7.27,0,0,1,7.27-7.26h0S1260.73,560.75,1264.79,585.09Z"/><path class="cls-2" d="M1264.79,534.24c-4.06,24.34-18.16,25.43-18.16,25.43h0a7.28,7.28,0,0,1-7.27-7.27h0S1240.45,538.3,1264.79,534.24Z"/><path class="cls-2" d="M1213.94,534.24c24.34,4.06,25.42,18.16,25.42,18.16h0a7.27,7.27,0,0,1-7.26,7.27h0S1218,558.58,1213.94,534.24Z"/><path class="cls-2" d="M1264.82,559.67c-7.77,5.55-11.92,2-11.92,2h0a2.8,2.8,0,0,1,0-4h0S1257.05,554.12,1264.82,559.67Z"/><polygon class="cls-3" points="1077.95 568.71 1062.57 568.71 1054.88 562.43 1047.2 562.43 1043.35 568.71 1047.2 575 1054.88 575 1062.57 568.71 1077.95 568.71"/><polygon class="cls-3" points="1077.95 568.59 1069.79 576.75 1062.38 577.49 1058.31 581.57 1059.6 586.94 1064.97 588.23 1069.05 584.16 1069.79 576.75 1077.95 568.59"/><polygon class="cls-3" points="1077.95 568.59 1086.1 576.75 1086.85 584.16 1090.92 588.23 1096.29 586.94 1097.59 581.57 1093.51 577.49 1086.1 576.75 1077.95 568.59"/><polygon class="cls-3" points="1077.95 568.59 1086.1 560.44 1093.51 559.7 1097.59 555.62 1096.29 550.25 1090.92 548.95 1086.85 553.03 1086.1 560.44 1077.95 568.59"/><polygon class="cls-3" points="1077.95 568.59 1069.79 560.44 1069.05 553.03 1064.97 548.95 1059.6 550.25 1058.31 555.62 1062.38 559.7 1069.79 560.44 1077.95 568.59"/><polygon class="cls-3" points="1077.95 568.71 1077.95 584.09 1071.66 591.78 1071.66 599.47 1077.95 603.31 1084.23 599.47 1084.23 591.78 1077.95 584.09 1077.95 568.71"/><polygon class="cls-3" points="1077.95 568.71 1093.32 568.71 1101.01 575 1108.7 575 1112.54 568.71 1108.7 562.43 1101.01 562.43 1093.32 568.71 1077.95 568.71"/><polygon class="cls-3" points="1077.95 568.71 1077.95 553.34 1084.23 545.65 1084.23 537.96 1077.95 534.12 1071.66 537.96 1071.66 545.65 1077.95 553.34 1077.95 568.71"/><circle class="cls-4" cx="1163.61" cy="568.71" r="19.58" transform="translate(-128.6 481.39) rotate(-22.18)"/><path class="cls-4" d="M1163.71,549.17l-2.89-2.74a4.35,4.35,0,0,1-1-4.78l2.06-5.22a4.3,4.3,0,0,1,1.64-2,4.22,4.22,0,0,1,1.7,2l2.23,5.16a4.36,4.36,0,0,1-.9,4.81Z"/><path class="cls-4" d="M1153.92,551.74l-3.87-.93a4.36,4.36,0,0,1-3.3-3.62l-.82-5.54a4.25,4.25,0,0,1,.4-2.58,4.18,4.18,0,0,1,2.46.86l4.5,3.35a4.32,4.32,0,0,1,1.64,4.61Z"/><path class="cls-4" d="M1146.73,558.86l-3.81,1.13a4.35,4.35,0,0,1-4.67-1.48l-3.49-4.4a4.35,4.35,0,0,1-.94-2.43,4.27,4.27,0,0,1,2.56-.49l5.58.65a4.35,4.35,0,0,1,3.72,3.18Z"/><path class="cls-4" d="M1144.06,568.62l-2.73,2.89a4.37,4.37,0,0,1-4.79,1l-5.21-2.07a4.24,4.24,0,0,1-2-1.63,4.17,4.17,0,0,1,2-1.7l5.15-2.23a4.35,4.35,0,0,1,4.82.89Z"/><path class="cls-4" d="M1146.63,578.4l-.92,3.88a4.37,4.37,0,0,1-3.62,3.3l-5.55.81a4.21,4.21,0,0,1-2.57-.4,4.11,4.11,0,0,1,.85-2.45l3.35-4.51a4.36,4.36,0,0,1,4.62-1.64Z"/><path class="cls-4" d="M1153.75,585.59l1.14,3.82a4.36,4.36,0,0,1-1.49,4.67l-4.39,3.48a4.24,4.24,0,0,1-2.43.94,4.13,4.13,0,0,1-.49-2.56l.65-5.57a4.34,4.34,0,0,1,3.18-3.73Z"/><path class="cls-4" d="M1163.51,588.26l2.89,2.74a4.35,4.35,0,0,1,1,4.78l-2.06,5.22a4.36,4.36,0,0,1-1.64,2,4.17,4.17,0,0,1-1.7-2l-2.23-5.16a4.36,4.36,0,0,1,.9-4.82Z"/><path class="cls-4" d="M1173.3,585.69l3.87.93a4.34,4.34,0,0,1,3.3,3.61l.82,5.55a4.25,4.25,0,0,1-.4,2.58,4.15,4.15,0,0,1-2.46-.86l-4.51-3.35a4.35,4.35,0,0,1-1.63-4.62Z"/><path class="cls-4" d="M1180.49,578.57l3.81-1.13a4.35,4.35,0,0,1,4.67,1.48l3.49,4.4a4.24,4.24,0,0,1,.93,2.43,4.15,4.15,0,0,1-2.55.48l-5.58-.64a4.34,4.34,0,0,1-3.72-3.19Z"/><path class="cls-4" d="M1183.16,568.81l2.73-2.89a4.37,4.37,0,0,1,4.79-1l5.21,2.07a1.69,1.69,0,1,1,.06,3.33l-5.15,2.23a4.35,4.35,0,0,1-4.82-.89Z"/><path class="cls-4" d="M1180.59,559l.92-3.87a4.36,4.36,0,0,1,3.62-3.3l5.55-.82a1.69,1.69,0,1,1,1.72,2.86l-3.35,4.51a4.34,4.34,0,0,1-4.62,1.63Z"/><path class="cls-4" d="M1173.47,551.84l-1.14-3.82a4.36,4.36,0,0,1,1.49-4.67l4.39-3.48a4.24,4.24,0,0,1,2.43-.94,4.11,4.11,0,0,1,.49,2.55l-.65,5.58a4.35,4.35,0,0,1-3.18,3.73Z"/></g></g></svg>