<svg xmlns="http://www.w3.org/2000/svg" viewBox="0 0 380.18 442.42"><defs><style>.cls-1{opacity:0.5;}.cls-2{fill:#cebbab;}</style></defs><g id="Livello_2" data-name="Livello 2"><g id="Talamello"><g class="cls-1"><path class="cls-2" d="M380.08,329.46c-.2-.45.3.36,0,0-13.52-15.93-6-8.33-20.56-23.36-10.66-11-21.91-21.42-33.27-31.71-3.5-3.16-6.81-6.51-10.26-9.72a4,4,0,0,1-1.18-3.19q0-6.1,0-12.22c0-.85.07-1.71.08-2.57,0-3.75-.82-4.37-5.1-3.46.11,6.11,1.28,12,.63,18.22a14.4,14.4,0,0,1-5-1.66c-5.07-2.31-10.15-4.63-15.23-6.91a26.94,26.94,0,0,0-2.69-.87c-.62,1.51-1.16,2.84-1.82,4.43,6.3,3.52,13.16,5.42,19.51,9.22L292,273.24l4,4c1-.52,1.82-.91,2.6-1.41,2.79-1.8,5.58-3.6,8.33-5.47,1.82-1.24,3.4-1.16,5.28.1a97.46,97.46,0,0,1,13.45,10.93l39.83,38.82c9.78,9.54,6.9,4.59,14.62,15.85"/><path class="cls-2" d="M234.56,241a30.87,30.87,0,0,0-2.34-3.41c-4.85-5.44-9.83-10.77-14.64-16.23-2.84-3.22-5.5-6.59-8.14-10-5.56-7.08-11-14.25-16.61-21.29-2.6-3.27-5.53-6.27-8.17-9.49-3.88-4.71-7.79-9.4-11.38-14.33-2-2.79-4.34-4.5-7.81-4.92-3.29-.4-6.53-1.25-9.8-1.84a4.57,4.57,0,0,0-3,.56c1.57,1.68,3.17,3.33,4.72,5C164.61,173,171.85,180.94,179,189c2.47,2.8,4.46,6,6.91,8.84,4,4.51,8.15,8.8,12.18,13.24,5.05,5.54,10.61,10.56,16.05,15.71,4.13,3.89,8,8,12,12.07A9.08,9.08,0,0,0,234.56,241Z"/><path class="cls-2" d="M265.63,251.7a27.8,27.8,0,0,0-7.91-2.09,3.82,3.82,0,0,0-2.09.65c-4.07,2.15-8.11,4.34-12.16,6.53q-5.24,2.82-10.46,5.66-7,3.84-14.08,7.71l-18.86,10.37c-6.19,3.4-12.31,6.93-18.59,10.15-6.66,3.42-13.49,6.53-20.23,9.82a22.39,22.39,0,0,0-3.79,2.35c-.72.58-1.45,1.61-.66,2.51a2.8,2.8,0,0,0,2.25.65c2.41-.48,4.77-1.19,7.15-1.83s5-1.36,7.45-2a4.76,4.76,0,0,1,2.21-.28c3.51.84,6.26-1,9-2.53,5.46-2.95,10.82-6.08,16.19-9.2,4.81-2.78,9.57-5.67,14.37-8.48q10-5.83,20-11.62l23.31-13.6c1.85-1.07,3.7-2.14,5.51-3.27A9.53,9.53,0,0,0,265.63,251.7Z"/><path class="cls-2" d="M103.57,289.26a40,40,0,0,0,11.82,2.46c2,0,4.19-1.46,6.16-2.5,3.31-1.74,6.53-3.66,9.77-5.52,5-2.87,10-5.76,15-8.62,3.72-2.12,7.49-4.15,11.17-6.34q7.71-4.61,15.3-9.39c6.24-3.94,12.41-8,18.62-12,3.12-2,6.26-4,9.81-6.2a16.27,16.27,0,0,0-2.09-.78q-3.15-.59-6.33-1.06a6.63,6.63,0,0,0-4.88,1c-2.6,1.68-5.38,3.07-8.08,4.6C173.93,248.29,168,251.62,162,255c-7.12,4.13-14.17,8.38-21.29,12.52-3.05,1.77-6.21,3.35-9.28,5.1-4.83,2.76-9.59,5.64-14.44,8.36-3.64,2-7.39,3.88-11.07,5.83-.9.48-1.75,1-2.62,1.55Z"/><path class="cls-2" d="M247.22,243.33a5.8,5.8,0,0,0-.42-1.23c-4.92-6.6-9.88-13.17-14.76-19.79-1.64-2.24-3-4.65-4.63-6.94Q223,209,218.6,202.74c-4.12-5.85-8-11.86-12.49-17.47-3.74-4.73-6.55-10-10.07-14.88a6.61,6.61,0,0,0-2.53-2.3c-5.46-2.21-11-4.26-16.5-6.34a4.68,4.68,0,0,0-1.58-.26,1.37,1.37,0,0,0-1.25,2.2,15.44,15.44,0,0,0,1.74,2.3c2.35,2.64,4.78,5.2,7.09,7.87,7,8.07,14.13,16.07,20.94,24.32C208.72,204,213,210.09,217.6,216c1,1.27,2.17,2.36,3.22,3.57,3.55,4.14,7.06,8.31,10.62,12.43,1.81,2.11,3.7,4.15,5.54,6.22a4.93,4.93,0,0,1,1,1.22C239.77,243.59,243.23,243.6,247.22,243.33Z"/><path class="cls-2" d="M151.75,233.91c-3.82-.45-7.42-.75-11-1.33a8.6,8.6,0,0,0-7,2c-3.82,2.89-8,5.31-12,7.94-3.5,2.28-7,4.6-10.47,6.86-2.16,1.4-4.34,2.74-6.55,4.05-6.16,3.66-12.32,7.32-18.51,10.93a42.91,42.91,0,0,1-4.06,1.91,3.67,3.67,0,0,0-2.42,3.11,16,16,0,0,1-1.2,3.6c-.89,2.22-.48,3,1.82,3.82a6.61,6.61,0,0,0,5.3-.48c4.5-2.25,9.1-4.33,13.42-6.88,9-5.34,17.92-10.88,26.8-16.44,5-3.11,9.93-6.31,14.74-9.69,3.67-2.57,7.12-5.46,10.66-8.22C151.39,235,151.42,234.71,151.75,233.91Z"/><path class="cls-2" d="M225.57,339.15c-1.65,1.36-2.89,2.3-4,3.35-1.91,1.71-3.71,3.54-5.66,5.2a4,4,0,0,0-1.44,3.33c0,5.76-.21,11.52-.4,17.28-.22,6.83-.46,13.67-.83,20.5-.22,4.05-.7,8.09-1.07,12.13q-.76,8.15-1.5,16.28c0,.18.16.38.39.91.9-.39,1.85-.75,2.75-1.21s1.64-1,2.78-1.68c-.1,1.2-.25,2.18-.25,3.16,0,1.36,1,2.06,2.14,1.34a28.42,28.42,0,0,0,4-3.19,2.81,2.81,0,0,0,.57-1.76c.61-8.74,1.33-17.48,1.41-26.26.08-7.8.4-15.6.68-23.39.29-8,.68-16,1-24.05A9.28,9.28,0,0,0,225.57,339.15Z"/><path class="cls-2" d="M237.9,328.75a13,13,0,0,0-1.5,1c-1.54,1.33-2.87,3-4.62,4-2.63,1.42-2.6,3.34-2.44,5.9.24,4.05-.14,8.12-.23,12.18-.15,6.62-.24,13.25-.44,19.87-.16,5.56-.57,11.11-.62,16.67a212.14,212.14,0,0,1-1.6,22.4c-.17,1.5-.25,3-.34,4.49a2.23,2.23,0,0,0,1.23,2.41,2.48,2.48,0,0,0,3-.46,17.09,17.09,0,0,0,2-2.1c1.66-2.11,3.27-4.26,4.92-6.37a6,6,0,0,0,1.29-3.87c0-7.82.12-15.64.17-23.46,0-5.57.07-11.13,0-16.7s-.23-11.12-.25-16.68c0-5.35.1-10.71.13-16.07C238.58,330.9,238.93,329.8,237.9,328.75Z"/><path class="cls-2" d="M249.24,248.86a32.86,32.86,0,0,0-10.61-1.52,4.71,4.71,0,0,0-2,.85c-8.43,4.69-16.86,9.37-25.24,14.12-3.73,2.12-7.34,4.43-11.06,6.56-4.37,2.5-8.8,4.87-13.18,7.33-2.24,1.26-4.49,2.5-6.64,3.9-7.56,4.92-15.6,9-23.57,13.12-3.22,1.68-6.57,3.11-9.85,4.68a12.23,12.23,0,0,0-2.19,1.34,1.33,1.33,0,0,0,.39,2.46,9.52,9.52,0,0,0,3.49.15A88.26,88.26,0,0,0,158.85,300a29.24,29.24,0,0,0,6.74-2.95c7.75-4.35,15.44-8.82,23.14-13.26,8.24-4.76,16.43-9.6,24.72-14.28,7.65-4.33,15.39-8.49,23.07-12.75q5.05-2.8,10.06-5.72A23.48,23.48,0,0,0,249.24,248.86Z"/><path class="cls-2" d="M140.87,163c1.24,1.42,2.16,2.54,3.14,3.6,7.23,7.77,14.54,15.46,21.69,23.3,5.49,6,10.71,12.25,16.19,18.27,3.39,3.72,7,7.24,10.57,10.78q9.12,9,18.36,18a4.1,4.1,0,0,0,1.91,1c2.72.52,5.47.91,8.59,1.41-.35-.81-.44-1.45-.81-1.79-6-5.68-12-11.31-18-17-1.31-1.25-2.48-2.66-3.72-4-7.39-7.9-15.18-15.43-21.28-24.46a77.08,77.08,0,0,0-5.4-6.37c-3.25-3.85-6.44-7.75-9.72-11.56-3.5-4.06-7.1-8-10.6-12.08a3,3,0,0,0-3.41-1.09C146.06,161.71,143.59,161.86,140.87,163Z"/><path class="cls-2" d="M231.77,246.28a24.18,24.18,0,0,0-8.47-1.89,5.07,5.07,0,0,0-2.63,1c-6.16,3.66-12.26,7.41-18.43,11.06q-7.32,4.33-14.73,8.52c-7.74,4.35-15.53,8.62-23.28,13-5.14,2.88-10.17,6-15.4,8.66s-10.15,6-15.87,7.69a3.89,3.89,0,0,0-3.11,3.55c.83,1.15,1.94.93,3,.88,1.71-.07,3.43-.31,5.13-.21a16.47,16.47,0,0,0,9.47-2.4c9.76-5.58,19.6-11,29-17.24,3.73-2.49,7.76-4.52,11.65-6.77,4.35-2.53,8.66-5.11,13-7.61,5-2.87,10.09-5.65,15.11-8.51,4.83-2.76,9.62-5.57,14.42-8.39C231,247.35,231.18,246.94,231.77,246.28Z"/><path class="cls-2" d="M205,236c-1.2-1.2-2.39-2.41-3.61-3.6-5.35-5.21-10.77-10.35-16-15.64-2.86-2.87-5.47-6-8.21-9-3-3.31-6.18-6.54-9.14-9.92-7.1-8.13-14.11-16.34-21.18-24.51-2.38-2.75-4.86-5.42-7.18-8.22a3.56,3.56,0,0,0-4.23-1.29c-1.74.53-3.55.82-5.3,1.31a12,12,0,0,0-2.05,1.07,10.52,10.52,0,0,0,1.08,1.42c5,4.71,10.1,9.26,14.92,14.11,5.87,5.92,11.52,12.06,17.21,18.16S172.41,212,178,218c4.82,5.16,9.75,10.2,14.57,15.36a6,6,0,0,0,4.37,2.25c1.8.08,3.58.59,5.38.85a22,22,0,0,0,2.44.12Z"/><path class="cls-2" d="M191.34,298.13c1,1.19,2,.81,2.89.52q8-2.76,16.05-5.58c3.23-1.13,6.48-2.23,9.68-3.45a30,30,0,0,0,6.39-2.89c4.07-2.81,8.8-3.79,13.28-5.47a100.88,100.88,0,0,0,12.3-5.46c4.9-2.64,9.66-5.56,14.28-8.67,3.89-2.63,7.52-5.67,11.2-8.59,1.25-1,2.53-2,2.9-3.87-2.26-1.32-4.83-1.6-7.34-1.92a4.91,4.91,0,0,0-2.63,1c-2.94,1.76-5.8,3.64-8.74,5.4-5.88,3.5-11.77,7-17.7,10.39q-8.34,4.8-16.76,9.41c-5.83,3.17-11.72,6.22-17.59,9.31-5.69,3-11.39,5.94-17.08,8.93A7.42,7.42,0,0,0,191.34,298.13Z"/><path class="cls-2" d="M303.46,188.27c.76-2.55-.17-4.88-.86-7.19-.16-.53-1.05-1-1.7-1.22q-10.08-3.78-20.19-7.47c-4.73-1.73-9.46-3.41-14.19-5.14-5.94-2.16-11.86-4.36-17.8-6.52-4-1.47-8.06-2.9-12.11-4.33a4.29,4.29,0,0,0-1.15-.05,4.68,4.68,0,0,0,.76,4.16c1.55,2.56,3.27,5.05,4.69,7.68,1,1.93,2.67,2.65,4.58,3.17,2.89.79,5.79,1.58,8.65,2.47,3.77,1.19,7.49,2.54,11.27,3.7,5.22,1.61,10.47,3.13,15.72,4.65,7.1,2,14.2,4.06,21.3,6.08A4.34,4.34,0,0,0,303.46,188.27Z"/><path class="cls-2" d="M259.87,308.52c-2.38,2.15-4.33,3.78-6.11,5.58a3.23,3.23,0,0,0-.48,2.1c.12,5.88.33,11.76.45,17.65.07,3.42,0,6.84,0,10.26,0,3.63.11,7.26.17,10.89.18,9,.4,18,.5,26.95,0,2.43-.32,4.87-.51,7.41.62,0,1,.16,1.18,0,3.1-2.48,6.11-5.05,8.28-8.46a8.76,8.76,0,0,0,1.64-5.74c-.5-5-.95-10-1.38-15.05-.81-9.37-1.68-18.75-2.34-28.13-.5-7.15-.72-14.32-1.07-21.48C260.21,310.12,260.09,309.71,259.87,308.52Z"/><path class="cls-2" d="M173.48,231.64c-1-1.23-1.56-2-2.19-2.64-5.76-6-11.9-11.77-17.22-18.17-8.85-10.63-19-20-28.15-30.35-2.77-3.13-5.57-6.24-8.22-9.47-1.18-1.44-2.38-2-4.16-1.33s-3.68,1.16-5.5,1.8a6.52,6.52,0,0,0-1.37,1.06,39.59,39.59,0,0,0,2.55,3c5.56,5.48,11.21,10.88,16.75,16.39,4.71,4.68,9.49,9.3,13.89,14.25s9.21,9.54,13.19,14.88a71.27,71.27,0,0,0,8,8.35,6.37,6.37,0,0,0,3.12,1.5c2.41.45,4.87.63,7.3.89A14.24,14.24,0,0,0,173.48,231.64Z"/><path class="cls-2" d="M267.79,376.9c2-1.5,1.71-4,3.32-5.34,3.67.47,5.26-.54,6.24-4.1a7.09,7.09,0,0,0,.1-2.52c-.73-7.44-1.55-14.88-2.25-22.33-.91-9.78-1.69-19.58-2.59-29.37-.37-4.05-.87-8.09-1.34-12.12a8.59,8.59,0,0,0-.45-1.37c-2.87,1.14-4.65,3.39-6.57,5.46a1.93,1.93,0,0,0-.35,1.2c0,2,0,4,.07,6.08.37,6.4.82,12.79,1.21,19.18.58,9.17,1.2,18.34,1.68,27.51.27,5.23.3,10.46.47,15.69A12.65,12.65,0,0,0,267.79,376.9Z"/><path class="cls-2" d="M242.4,402.2a48.3,48.3,0,0,0,8.35-8.19,4.75,4.75,0,0,0,.5-2.76c-.27-8.34-.64-16.68-.91-25-.24-7.58-.45-15.17-.54-22.76-.09-7.16,0-14.34,0-21.5a25.92,25.92,0,0,0-.44-3.09,9.23,9.23,0,0,0-1.88.85c-1.43,1.13-2.74,2.4-4.2,3.48a3.55,3.55,0,0,0-1.53,3.31c.14,3,.31,6,.33,9,0,5-.06,10.06,0,15.09,0,3.74.16,7.48.15,11.22q0,9.12-.13,18.26c0,4.28-.14,8.55-.22,12.83,0,2.14-.14,4.28-.19,6.42,0,.83.05,1.68.08,2.52Z"/><path class="cls-2" d="M304.79,171.33c2.65-2.33,4.93-4.25,7.12-6.26A176.16,176.16,0,0,0,328.42,148c4-4.86,8.17-9.64,12.17-14.53a86.87,86.87,0,0,0,8.05-11.93,5.62,5.62,0,0,0,.58-4.92c-.78-2.3-1.39-4.66-2.24-7.51a17.89,17.89,0,0,0-1.66,2,151.69,151.69,0,0,1-13.74,20.15c-2.32,2.92-5,5.52-7.62,8.23-1.47,1.55-3.1,2.94-4.53,4.52A109.7,109.7,0,0,1,304,157.63a3.78,3.78,0,0,0-1.61,4.68C303.23,165.06,303.88,167.86,304.79,171.33Z"/><path class="cls-2" d="M261.66,246a10.39,10.39,0,0,0-.87-1.93c-7.87-8.82-14.35-18.68-21.13-28.32-3.63-5.16-6.75-10.67-10.18-16-1.68-2.61-3.51-5.13-5.34-7.64-4-5.45-8-10.84-12-16.31a9.33,9.33,0,0,0-3.35-2.89c-3.12-1.66-6.17-3.47-9.27-5.17-.78-.43-1.65-.7-2.47-1l-.42.55c.7,1,1.37,2.09,2.13,3.09q5.78,7.71,11.59,15.39c2.59,3.41,5.34,6.71,7.84,10.19,4.12,5.74,8.08,11.59,12.13,17.38,2.64,3.77,5.31,7.52,8,11.28,2.17,3,4.31,6.12,6.53,9.14,2.4,3.29,4.85,6.53,7.32,9.76a2.43,2.43,0,0,0,1.24.95C256,245,258.56,245.43,261.66,246Z"/><path class="cls-2" d="M183.92,238.61c-3.72-.75-6.62-1.37-9.54-1.91-2-.38-3.79.45-5.44,1.5-6.14,3.91-12.23,7.9-18.41,11.75-5,3.1-10.11,6-15.12,9.08-4.11,2.52-8.1,5.22-12.21,7.74-5.28,3.24-10.59,6.46-16,9.52-4.74,2.69-9.62,5.14-14.44,7.72-.44.23-.84.55-1.56,1a23.6,23.6,0,0,0,7.67,2.7,4,4,0,0,0,2.37-.81c2.68-1.57,5.3-3.22,7.94-4.85,5.11-3.13,10.18-6.32,15.33-9.39q16.28-9.69,32.61-19.27c3.23-1.89,6.64-3.48,9.91-5.3C172.45,245.12,177.83,242,183.92,238.61Z"/><path class="cls-2" d="M120.32,292.38c5.47,2.37,10.15,2,14.82-.81,7.81-4.64,15.75-9.07,23.6-13.66,5.82-3.39,11.55-6.94,17.37-10.34,4.06-2.38,8.23-4.59,12.3-7,7.49-4.36,14.94-8.8,22.41-13.18,1.92-1.13,4-2,5.61-3.69-3.68-2.13-8.63-2.3-11.88-.28-7,4.32-14,8.74-21,13.09-5.89,3.65-11.74,7.4-17.76,10.83-8.84,5-17.8,9.84-26.73,14.69-5.27,2.86-10.59,5.61-15.88,8.44C122.34,291,121.52,291.6,120.32,292.38Z"/><path class="cls-2" d="M188.59,233.63l-5.42-5.74Q177.56,222,171.93,216c-2.58-2.71-5.26-5.32-7.77-8.08-3.25-3.56-6.31-7.29-9.57-10.83-6.3-6.85-12.68-13.63-19-20.43-2.7-2.89-5.49-5.71-8.14-8.66a3.52,3.52,0,0,0-4-1.15,21.25,21.25,0,0,0-5.08,1.82c.84,1,1.41,1.91,2.14,2.64,8,7.91,15.93,15.87,24,23.67,4.17,4,7.75,8.54,11.52,12.92,4.33,5,8.9,9.83,13.41,14.69,2.83,3.06,5.72,6.06,8.66,9a5.77,5.77,0,0,0,2.57,1.72c2.48.51,5,.7,7.55,1Z"/><path class="cls-2" d="M225.45,87.56A14.75,14.75,0,0,0,225,90c.1,4.07.29,8.14.38,12.21a2.52,2.52,0,0,0,1.88,2.64c1.21.4,2.42.86,3.61,1.36L259,118.08c5.83,2.46,11.64,5,17.48,7.36,3.76,1.55,7.56,3,11.35,4.46a6.94,6.94,0,0,0,1.22.25c.65-2.11.06-4.06-1.49-5-.74-.43-1.55-.72-2.31-1.11-5.83-2.95-11.74-5.75-17.46-8.9-5.42-3-10.73-6.22-15.93-9.58-6.83-4.42-13.51-9.07-20.25-13.65C229.7,90.64,227.83,89.25,225.45,87.56Z"/><path class="cls-2" d="M307.66,184c1.71-1.4,3.53-2.7,5.12-4.24,6.07-5.89,12.07-11.85,18.09-17.78,2.67-2.62,5.45-5.14,7.92-7.93a73,73,0,0,0,4.84-6.78c2.52-3.59,5.08-7.15,7.52-10.8a5.53,5.53,0,0,0,1.18-3.17c-.35-3.4-1-6.77-1.62-10.14-.06-.36-.39-.66-.76-1.25a10.78,10.78,0,0,0-1,1.5c-2.54,6-6.63,11-10.53,16.09-4.28,5.62-8.49,11.31-13.07,16.67a161.85,161.85,0,0,1-11.46,11.68c-2.3,2.22-4.95,4.07-7.37,6.17a2.59,2.59,0,0,0-.95,1.83c.28,2.63.77,5.23,1.18,7.84Z"/><path class="cls-2" d="M216.17,177.39a90,90,0,0,0,5.46,7.44c6.92,7.68,12.52,16.28,18.27,24.81,6.33,9.4,12.88,18.67,19.44,27.92,2.1,3,4.5,5.73,6.81,8.54,1.75,2.12,5.65,2.48,8.89.84-.47-1.94-2-3.21-3.19-4.64a156.84,156.84,0,0,1-11.89-16c-2-3.06-4.35-5.85-6.43-8.84-2.93-4.21-5.77-8.5-8.63-12.77-2.61-3.92-5.18-7.85-7.8-11.77a8.19,8.19,0,0,0-1.6-2q-8.5-6.6-17.1-13.08a12.34,12.34,0,0,0-1.91-1Z"/><path class="cls-2" d="M156,228.9a11.19,11.19,0,0,0-.88-1.25c-6.21-6.78-12.38-13.61-18.66-20.31-4.91-5.23-10-10.27-14.94-15.48-4.41-4.67-8.77-9.39-13-14.21-1.62-1.84-3.31-2.53-5.63-1.74s-4.68.57-6.77,2.12a9.06,9.06,0,0,0,3.07,4.06c5.26,4.86,10.63,9.62,15.85,14.53,6.71,6.31,13.31,12.72,20,19.11,4,3.86,8,7.76,12,11.62a3.63,3.63,0,0,0,1.53,1.07c2.39.46,4.79.79,7.19,1.16C155.77,229.35,155.87,229.13,156,228.9Z"/><path class="cls-2" d="M301.91,176.34c-.34-2.38-.61-4.48-.94-6.57-.23-1.5-1.38-2-2.67-2.42-2.95-.95-5.89-2-8.82-3-7-2.41-14-4.7-20.92-7.27-9.22-3.43-18.37-7-27.53-10.63-3-1.15-5.87-2.46-9.09-3.82a7,7,0,0,0-.21,1.88c.52,2.19,1.18,4.34,1.68,6.53a2.76,2.76,0,0,0,2,2.25c2.13.69,4.23,1.49,6.36,2.22,8,2.74,16,5.44,24,8.2q12.57,4.35,25.13,8.77c3,1.06,6,2.27,9,3.38A16.26,16.26,0,0,0,301.91,176.34Z"/><path class="cls-2" d="M354,136.59c-1,1.28-1.7,2-2.2,2.74-1.89,3-3.62,6.06-5.59,9-3.19,4.69-6.4,9.32-10.61,13.25-6,5.63-11.71,11.58-17.55,17.39-1.59,1.59-3.08,3.3-4.8,4.72s-3.68,2.55-5.82,4c.33,2.74.68,5.54,1.07,8.74a17,17,0,0,0,2.32-1.05,137.33,137.33,0,0,0,28.89-26.24c4.57-5.51,8.72-11.37,13-17.1a4.3,4.3,0,0,0,.88-2c.4-3.61.74-7.24,1-10.87A10.51,10.51,0,0,0,354,136.59Z"/><path class="cls-2" d="M286.88,121.05c-.77-2.39-1.38-4.4-2.08-6.37-.32-.92-.93-1.73-1.16-2.65-.86-3.47-3.27-5.21-6.37-6.66Q263.46,98.89,249.85,92c-6.11-3.11-12-6.59-18-9.89a20.19,20.19,0,0,0-2-.82c-.09,1.92-.12,3.59-.24,5.25a3,3,0,0,0,1.68,3.15c3.95,2.37,7.83,4.85,11.76,7.25,6,3.69,12,7.44,18.14,11,5.36,3.11,10.84,6,16.3,8.95,2.55,1.37,5.17,2.59,7.77,3.85A9.38,9.38,0,0,0,286.88,121.05Z"/><path class="cls-2" d="M181.65,423.29c1.76,1.7,3.36-.79,5.24.27.11.71.19,1.63.39,2.52.39,1.67,1.46,2.39,3.09,1.83,3.29-1.14,3.77-1.44,4.11-4.83.64-6.26,1.7-12.48,2.28-18.75.51-5.63.6-11.31.93-17,.2-3.52.52-7,.76-10.54s.52-7.26.72-10.89a20.85,20.85,0,0,0-.2-2.8c-3.59.65-6.05,3.05-6.47,5.94-.56,3.9-1.24,7.79-1.82,11.69-.77,5.18-1.39,10.38-2.28,15.54-1,6-2.3,12-3.47,17.95-.17.84-.43,1.66-.6,2.5-.35,1.79-.58,3.58-2.14,4.88C181.8,422,181.81,422.77,181.65,423.29Z"/><path class="cls-2" d="M299.21,164.41c.42-2.77-.83-5-1.72-7.21-.22-.55-1.11-.94-1.77-1.17-4.43-1.58-8.91-3.05-13.34-4.66-10.75-3.91-21.51-7.8-32.2-11.89-5.7-2.18-11.23-4.76-16.86-7.11a4.87,4.87,0,0,0-2.45-.43,2.31,2.31,0,0,0-2.15,3,15.67,15.67,0,0,0,1.45,4.56,4.65,4.65,0,0,0,2.47,1.77c7.27,2.54,14.6,4.91,21.86,7.47,10,3.53,19.94,7.17,29.9,10.78,4.33,1.56,8.63,3.2,13,4.75A8,8,0,0,0,299.21,164.41Z"/><path class="cls-2" d="M197.4,424.56c3.06-1.34,5.45-2.26,7.68-3.47a3.42,3.42,0,0,0,1.39-2.34,79.73,79.73,0,0,0,1.12-10.2,92.61,92.61,0,0,1,1.32-14.68,22.58,22.58,0,0,0,.19-3.19q.42-15.89.83-31.77c0-1.56.18-3.12.3-5.14a12.29,12.29,0,0,0-2.41.94c-1.54,1.15-3.52,2.14-4.35,3.71s-.41,3.7-.55,5.59c-.57,7.89-1,15.79-1.75,23.67-1,10.11-2.25,20.19-3.35,30.29C197.6,420,197.56,422,197.4,424.56Z"/><path class="cls-2" d="M86.86,182.43c.6.71,1.09,1.37,1.67,1.94,5.42,5.33,11,10.5,16.24,16,5.82,6.13,11.33,12.57,17,18.89,1.64,1.85,3.21,3.75,4.77,5.65a4.54,4.54,0,0,0,3.78,1.95c3.51,0,7,.5,10.52.77a11.54,11.54,0,0,0,1.59-.16,12.31,12.31,0,0,0-1.11-1.64c-1.7-1.63-3.45-3.22-5.16-4.84-5.69-5.37-11.47-10.65-17-16.15-7.24-7.15-14.31-14.47-21.43-21.74a27,27,0,0,1-2.47-3,2.74,2.74,0,0,0-3.4-1A9.87,9.87,0,0,0,86.86,182.43Z"/><path class="cls-2" d="M296,152.64a33.05,33.05,0,0,0-2-8.19c-.18-.53-1.13-.89-1.81-1.1-4.18-1.33-8.42-2.51-12.58-3.89-7.29-2.43-14.7-4.49-21.81-7.54-9-3.88-18.29-7.26-27.46-10.82a16.76,16.76,0,0,0-2.37-.55A10.65,10.65,0,0,0,229.2,128a3.48,3.48,0,0,0,1.74,1.25c6.25,2.51,12.47,5.09,18.78,7.43,6.52,2.41,13.14,4.55,19.69,6.85,3.23,1.14,6.41,2.42,9.62,3.59q7.38,2.69,14.79,5.29A12,12,0,0,0,296,152.64Z"/><path class="cls-2" d="M279.12,102.88a24.64,24.64,0,0,0-.84-2.71c-1.81-3.88-3.79-7.31-8.26-9.13-4.1-1.67-7.7-4.55-11.53-6.89-4.28-2.61-8.63-5.1-12.82-7.85-6.08-4-12-8.13-18.06-12.21a9.37,9.37,0,0,0-1-.54c-1.25.3-1.33,1.13-1.15,2,.73,3.57,1.51,7.12,2.22,10.68a3.31,3.31,0,0,0,2,2.35c4.09,2.1,8.16,4.24,12.25,6.34,4.56,2.34,9.11,4.71,13.72,7,7,3.44,14.05,6.81,21.08,10.19A21.56,21.56,0,0,0,279.12,102.88Z"/><path class="cls-2" d="M297.75,144.29c2.26-2.57,4.09-4.5,5.74-6.58a191.41,191.41,0,0,0,17.61-27.19,151.18,151.18,0,0,0,11.71-26.75c.66-2.07.54-3.71-1-5.31-1.07-1.13-2-2.4-3.22-3.9a10.43,10.43,0,0,0-1.25,2.29c-1.13,5.28-3.52,10.1-5.61,15-2.51,5.9-5,11.83-8,17.53-2.35,4.54-5.31,8.78-8.09,13.1-2.07,3.24-4.27,6.4-6.45,9.58-.78,1.15-1.62,2.26-2.47,3.37a3.62,3.62,0,0,0-.68,3.61C296.61,140.55,297.06,142.07,297.75,144.29Z"/><path class="cls-2" d="M226,106.57a26.52,26.52,0,0,0,.92,9.82,3,3,0,0,0,2.34,2c3.37,1.09,6.74,2.15,10.08,3.33,5.44,1.94,10.85,4,16.3,5.93q9.69,3.44,19.42,6.76c4.86,1.67,9.74,3.3,14.61,5,.79.26,1.6.47,2.42.72.59-3.62-.45-5.66-3.39-6.54a167.43,167.43,0,0,1-22.37-8.94c-3.69-1.71-7.49-3.16-11.2-4.84-6-2.73-12-5.59-18.07-8.34C233.51,109.77,229.88,108.25,226,106.57Z"/><path class="cls-2" d="M182.72,313a29.79,29.79,0,0,0,2.94.74c8.79,1.14,17.6,2.19,26.39,3.38,3.81.52,7.57,1.34,11.36,2,4.53.78,9.07,1.54,13.62,2.21a3,3,0,0,0,2-.5,33,33,0,0,0,6.36-6.21,12.43,12.43,0,0,0-2.08-.87c-4-.82-8-1.68-12-2.33-6-1-12-1.71-18.07-2.67s-11.82-1.95-17.69-3.12a5.53,5.53,0,0,0-5.05,1.17C188.2,308.78,185.76,310.65,182.72,313Z"/><path class="cls-2" d="M320.43,66c-1.1,3.16-1.91,5.68-2.86,8.15-2.62,6.78-5.29,13.54-7.95,20.3-3.06,7.81-7.33,15-11.71,22.09-1.34,2.18-2.88,4.24-4.38,6.32a4.19,4.19,0,0,0-.74,4.47c.73,1.74.64,3.81,2.15,5.36,1.39-.35,2-1.51,2.65-2.57,3.21-5.31,6.18-10.78,9.65-15.91,2.68-3.94,4.41-8.32,6.58-12.48,1.62-3.12,2.78-6.47,4.26-9.68,1.84-4,3.84-7.89,5.66-11.89.89-1.94,1.52-4,2.27-6a3.21,3.21,0,0,0-.9-3.78C323.71,69.08,322.33,67.77,320.43,66Z"/><path class="cls-2" d="M285.6,33.06c-.27,2-.67,3.93-.81,5.9-.59,8.78-2.57,17.34-4,26-.75,4.54-1.64,9-2.52,13.57a32,32,0,0,1-1.35,5.6c-.93,2.39-.27,4.4.89,6.4.51.9,1.16,1.71,1.9,2.8a7.41,7.41,0,0,0,1.1-1.47c3.77-10.8,7.94-21.46,10.71-32.58q1.61-6.37,3.2-12.76a5,5,0,0,0-1.11-5c-2.1-2.28-4-4.78-5.93-7.18-.39-.47-.85-.88-1.28-1.32Z"/><path class="cls-2" d="M278.76,292.68c-1.52,1.07-2.84,1.92-4,2.9a1.82,1.82,0,0,0-.47,1.43c.23,2.32.62,4.64.85,7,.42,4.26.78,8.52,1.13,12.78q.48,5.58.88,11.18,1,14.38,2.06,28.77c.1,1.44-.19,2.95.78,4.71,2.15-3,4.9-5,5.89-8.47a24.47,24.47,0,0,0,1-11.05c-1.44-8.75-2.71-17.52-4-26.29-.67-4.54-1.19-9.1-1.78-13.66C280.63,298.91,280.39,295.83,278.76,292.68Z"/><path class="cls-2" d="M225.89,332.36c-1.2-.3-1.9-.5-2.61-.64-7.34-1.5-14.68-3-22-4.48-3.88-.78-7.77-1.55-11.66-2.26-4.74-.86-9.51-1.6-14.24-2.5a6.73,6.73,0,0,0-5.22.86c-1.81,1.14-3.69,2.18-5.53,3.28a6.35,6.35,0,0,0-1.57,1.11c-.45.52-1.06,1.28-.94,1.79s1,1.05,1.63,1.15c1.58.26,3.21.24,4.8.4,5.86.59,11.71,1.22,17.56,1.83s11.94,1.19,17.9,1.84c4.68.51,9.37,1,14,1.73,2.23.36,4,.13,5.44-1.63C224.09,334.06,224.86,333.38,225.89,332.36Z"/><path class="cls-2" d="M216.93,340.08c-3-.43-5.5-.9-8-1.15-12.78-1.26-25.43-3.36-38-5.81-2.82-.55-5.72-.77-8.59-1.09a3.44,3.44,0,0,0-1.87.25c-2.81,1.56-5.59,3.16-8.31,4.85a2.31,2.31,0,0,0-1.19,2.74,2.52,2.52,0,0,0,2.42,1.79c1.17.08,2.35.11,3.52.15,5,.15,10,.31,15.08.44l23.41.58c5.55.13,11.11.2,16.65.4C214.16,343.31,215.69,342.58,216.93,340.08Z"/><path class="cls-2" d="M131.82,232.57c-4.85-2-9.57-1.67-13.26.68l-17.32,11c-6.22,4-12.41,8-18.7,11.82-3.71,2.27-7.6,4.27-11.46,6.42.34,1.4,1.49,1.61,2.4,2,5,2.35,5.09,2.4,9.76-.58s9.08-6.07,13.67-9c3.42-2.2,7-4.22,10.38-6.39,2.07-1.32,4-2.85,6.08-4.17,5-3.16,10-6.24,15-9.38C129.41,234.32,130.42,233.55,131.82,232.57Z"/><path class="cls-2" d="M301.26,155.88c2.14-1.73,4.24-3.19,6.06-4.93,3.48-3.32,6.77-6.83,10.18-10.22,2-2,4.1-3.77,6.05-5.74,5.74-5.82,10.59-12.37,15.38-19,2.08-2.85,4.17-5.71,6.17-8.62a3.22,3.22,0,0,0,.69-2.27c-1.06-3.68-1.91-7.45-3.8-11.16a7,7,0,0,0-1.61,3.2,58.88,58.88,0,0,1-6.88,14.48A220.19,220.19,0,0,1,315.92,135c-4.84,5.44-9.66,10.91-14.54,16.31C300.22,152.6,299.85,153.82,301.26,155.88Z"/><path class="cls-2" d="M78.21,188.16c1.08,1.07,2.07,2,3,3,10.39,10.8,20.8,21.57,31.13,32.43a7.4,7.4,0,0,0,6.16,2.72c1.65-.11,3.33.08,5.35.14a10.74,10.74,0,0,0-1-1.9c-4.09-4.67-8.12-9.38-12.33-13.94-7.26-7.86-14.66-15.59-21.93-23.44-1.15-1.24-2.27-1.92-3.9-1.28C82.64,186.69,80.21,186.38,78.21,188.16Z"/><path class="cls-2" d="M254.88,306.48c-4.51-1.31-8.26-2.56-12.09-3.48-9.89-2.38-19.81-4.63-29.73-6.89a4.64,4.64,0,0,0-2.19.05c-3.19.89-6.35,1.89-9.53,2.81-1.44.42-2.9.75-4.35,1.14a7.58,7.58,0,0,0-2.11.69,2.27,2.27,0,0,0-.88,1.51c0,.31.62.81,1.05,1a7.37,7.37,0,0,0,1.89.37c3.72.49,7.44.95,11.15,1.42,8.4,1.06,16.8,2.07,25.18,3.18,4.88.66,9.76,1.36,14.59,2.29,1.82.34,3.12.09,4.29-1.28C252.82,308.49,253.6,307.79,254.88,306.48Z"/><path class="cls-2" d="M284.25,103.28c1.72-3.24,3.18-5.61,4.28-8.14,2-4.61,3.87-9.28,5.67-14,3.27-8.5,6.4-17,9.7-25.54.63-1.61.61-2.74-.72-4-2.32-2.17-4.46-4.52-7-7.15-.36,1.31-.6,2.07-.77,2.85-1.64,7.64-2.87,15.4-5,22.89-2.5,8.72-5.82,17.21-8.74,25.81a2.79,2.79,0,0,0-.13,1.81C282.2,99.47,283.08,101,284.25,103.28Z"/><path class="cls-2" d="M56.9,254.28a31.07,31.07,0,0,0-2.27,2.17c-1.07,1.24-.8,2.39.65,3.11a3.29,3.29,0,0,0,3.61-.29c5-3.44,10.23-6.66,15.15-10.25,7.61-5.54,15-11.31,22.53-17a13.21,13.21,0,0,0,1.27-1.4,11.91,11.91,0,0,0-2.25-.67c-3-.22-6-.4-9-.47a3.42,3.42,0,0,0-2,.81,133.94,133.94,0,0,1-16.7,11.87c-2.47,1.48-4.86,3.1-7.29,4.66-.18.11-.47.17-.54.33-1.1,2.43-3.34,2.2-5.42,2.4-1,.09-2.42-.24-2.69,1.15s1.19,1.59,2.13,1.92a18.93,18.93,0,0,0,2.83.58C56.93,253.57,56.92,253.92,56.9,254.28Z"/><path class="cls-2" d="M87.68,277.78l2.67,1.66a36.87,36.87,0,0,0-3.9,2c-.53.35-1.13,1.23-1,1.72a2.11,2.11,0,0,0,1.62,1.2,6.65,6.65,0,0,0,3.36-.57q6.72-3.79,13.25-7.89c4-2.49,7.87-5.12,11.78-7.72,5.06-3.38,10.06-6.87,15.18-10.16,5.3-3.42,10.69-6.72,16.08-10s11.06-6.54,16.57-9.84a29.15,29.15,0,0,0,2.58-2A23.34,23.34,0,0,0,156.7,235a3.52,3.52,0,0,0-1.69.87c-7.43,5.76-14.88,11.5-22.7,16.71-8,5.35-16,10.68-24.48,15.34A191.72,191.72,0,0,1,87.68,277.78Z"/><path class="cls-2" d="M310.14,205.15c1-.42,1.93-.78,2.83-1.25,5.76-3,10.67-7.17,15.45-11.46A235.75,235.75,0,0,0,350.79,169a11.73,11.73,0,0,0,2.53-4.78c.63-2.49,1.49-4.92,2.21-7.39.28-.94.52-2-.57-2.57s-1.76.25-2.37,1.05c-2.35,3-4.85,6-7,9.16-4.18,6-9.25,11.25-14.43,16.37-3.95,3.91-8,7.71-12.13,11.43-2.21,2-4.59,3.83-7,5.62C308.71,200.37,308.62,200.53,310.14,205.15Z"/><path class="cls-2" d="M119.35,391.78l6.49-.9c5.38-.73,10.72-1.95,16.21-1.69h.32l16.2-2a2.68,2.68,0,0,0,1.23-.27c2.06-1.47,4.07-3,6.6-4.86a21,21,0,0,0-3-.81c-8.73-.75-17.47-1.46-26.2-2.2-2.66-.23-5.32-.51-8-.75-.53-.05-1.07-.08-1.6-.08-3,0-3.85,1.29-3.08,4.16-1.86,2.7-3.68,5.31-5.45,8C119,390.54,119.18,391,119.35,391.78Z"/><path class="cls-2" d="M145.62,351.06c1.65.09,2.47.15,3.29.16,4.27.07,8.55.14,12.82.16,2.67,0,5.34,0,8-.12a108.25,108.25,0,0,1,15.68.88c4.35.45,8.75.39,13.14.56a1.71,1.71,0,0,1,.31,0c5,1.44,7.1-2.56,10.22-5-1-1.41-2.1-1.07-3.1-1.08-4.17,0-8.35.1-12.52-.08q-10.72-.47-21.45-1.26c-6.19-.45-12.37-1.05-18.54-1.69a3.78,3.78,0,0,0-4.05,1.86C148.37,347.13,147.19,348.76,145.62,351.06Z"/><path class="cls-2" d="M246.2,183a20.35,20.35,0,0,0,1.28,2.1c.94,1.17,2,2.23,2.92,3.42a10.79,10.79,0,0,0,6.84,4.17c7.11,1.5,14.08,3.67,21.16,5.36,8.53,2,17.1,3.88,25.66,5.79a2.41,2.41,0,0,0,.74-.08c1.24-1.55.2-3.21.28-4.86-3.2-1.73-6.59-2.3-9.89-3.18q-17.83-4.75-35.69-9.5c-3.93-1.05-7.84-2.17-11.77-3.23A7,7,0,0,0,246.2,183Z"/><path class="cls-2" d="M188.54,370.55c-3.22,2.08-6.18,3.75-8.38,6.38a4.92,4.92,0,0,0-.62,2.43c-.88,7-1.63,14-2.6,21-.93,6.69-2.07,13.34-3.1,20a16.58,16.58,0,0,0-.09,1.75c2.69.45,4.93-.56,7.09-1.58.51-.24.8-1.25.9-1.95.7-5.09,1.28-10.2,2-15.29q1.17-8.43,2.52-16.85c.69-4.33,1.51-8.64,2.24-13A24.42,24.42,0,0,0,188.54,370.55Z"/><path class="cls-2" d="M96.85,224.51c-.91-1-1.78-2-2.73-3-6.77-6.85-13.59-13.65-20.31-20.55-2.53-2.6-4.86-5.41-7.24-8.15a1.76,1.76,0,0,0-2.28-.61c-2.35,1.2-5,2.06-6.66,4.52a8.52,8.52,0,0,0,1,1.55q10.55,10.11,21.13,20.19c2,1.91,4,3.85,6.08,5.68a3.55,3.55,0,0,0,2,.78c2.85.19,5.72.25,8.57.36C96.58,225,96.71,224.76,96.85,224.51Z"/><path class="cls-2" d="M59.72,260.53c3.17.69,5.74,1.31,8.35,1.75a3.23,3.23,0,0,0,2-.67c3.31-2.17,6.6-4.37,9.85-6.63,6.06-4.21,12-8.61,18.18-12.66,5-3.28,10.3-6.15,15.45-9.21.52-.31,1-.7,1.69-1.18-1.32-1.28-2.81-1.32-4.24-1.48-.63-.08-1.28.07-1.92.05-5.88-.17-5.82-.09-10.47,3.36-6.36,4.73-12.8,9.34-19.26,13.92-3.4,2.41-6.88,4.74-10.4,7-2.62,1.66-5.37,3.09-8,4.65A11.78,11.78,0,0,0,59.72,260.53Z"/><path class="cls-2" d="M164.21,389.23a30.49,30.49,0,0,0-7.81,6.43,6,6,0,0,0-1,2.34c-1.91,6.24-3.73,12.51-5.7,18.74-1.07,3.35-2.41,6.62-3.6,9.94-.4,1.1-.76,2.23-1.06,3.36-.23.92-.6,2,.38,2.66s1.77-.07,2.58-.61c2-1.28,3.86-2.86,6-3.63,3-1.09,4.18-2.9,4.62-6,1.18-8.25,2.74-16.45,4.22-24.66.38-2.09,1-4.13,1.48-6.22A10.77,10.77,0,0,0,164.21,389.23Z"/><path class="cls-2" d="M305.91,55.18c-.35.72-.61,1.18-.79,1.67-3.73,10.82-7.24,21.73-11.28,32.45-2.06,5.47-5,10.61-7.69,15.86-.41.8-.87,1.45-.47,2.36.77,1.74,1.53,3.48,2.33,5.28,1.79-.65,2.35-2,2.92-3.19,2.16-4.65,4.35-9.29,6.39-14s3.87-9.28,5.69-14c2.06-5.27,4-10.59,6-15.9.22-.6.45-1.2.64-1.82C311,59.3,310.55,58.1,305.91,55.18Z"/><path class="cls-2" d="M67.72,191.19c1.73,1.77,3,3.16,4.39,4.5,8.92,8.92,18,17.66,26.68,26.83,3.46,3.66,7.17,3.38,11.67,3-.83-1.93-2.23-3-3.36-4.1-4.35-4.42-8.92-8.63-13.18-13.13-4.7-5-9.15-10.15-13.7-15.24-.43-.47-.82-1-1.25-1.47-3.28-3.65-3.66-3.75-8.2-1.92C69.9,190,69.08,190.5,67.72,191.19Z"/><path class="cls-2" d="M237,188.68a26.47,26.47,0,0,0,1.46,2.61c4.28,6,8.64,12,12.91,18,6.55,9.24,13,18.54,19.62,27.75,1.86,2.6,4,5,6.1,7.42q2.07,2.43,4.28,4.74a6.66,6.66,0,0,0,1.62.86,5.33,5.33,0,0,0-.18-1.54c-5.47-9.81-9.74-20.28-16.36-29.45a122.88,122.88,0,0,0-12.76-14.41c-5-5-9.88-10.09-14.83-15.14-.42-.43-.91-.81-1.36-1.22Z"/><path class="cls-2" d="M230.58,289.18c2.62.28,5.26.44,7.85.86q11.4,1.84,22.77,3.89a10.39,10.39,0,0,1,3.6,1.31c1.81,1.12,3.19.66,4.63-.59,1.9-1.67,3.87-3.27,5.82-4.9-.88-1.52-2.2-1.74-3.4-2.07-7.73-2.14-15.47-4.24-23.2-6.38a5.91,5.91,0,0,0-5.18.69,22.65,22.65,0,0,1-5,2.16,32.85,32.85,0,0,0-8.06,4.35C230.49,288.73,230.54,289,230.58,289.18Z"/><path class="cls-2" d="M304.36,194.74c-.1-1.18-.19-2.19-.27-3.24-9-1.46-17.43-4.41-25.88-7.07-9.81-3.08-19.47-6.6-29.22-9.86-2.82-.95-5.71-1.69-8.6-2.44-1.08-.29-1.86.59-1.66,1.71a3.22,3.22,0,0,0,.44,1.19c1.94,2.89,4.05,5.43,7.76,6.27,8.89,2,17.74,4.17,26.57,6.39,6.76,1.69,13.45,3.6,20.21,5.32,2.9.74,5.87,1.23,8.82,1.79A10,10,0,0,0,304.36,194.74Z"/><path class="cls-2" d="M336.26,79.39c-.42.61-.7.85-.75,1.13-2.16,15.18-8.66,28.59-16.88,41.31-1.5,2.33-3.09,4.62-4.53,7-3.76,6.19-8.81,11.32-13.65,16.61-.44.48-.95.89-1.33,1.4-.66.88-.62,1,.49,3.09.75-.65,1.48-1.21,2.13-1.84a148.13,148.13,0,0,0,16.71-19.54c3-4.15,5.65-8.59,8.5-12.87,4.24-6.33,8.41-12.7,11.3-19.8a52.93,52.93,0,0,0,2-6.42,3.92,3.92,0,0,0-.11-2.2c-.84-2.32-1.79-4.6-2.75-6.87C337.23,80.06,336.79,79.86,336.26,79.39Z"/><path class="cls-2" d="M306,214.2a12.72,12.72,0,0,0-.11-6.59c-.09-.44-.89-.91-1.45-1.05-1.66-.43-3.35-.74-5-1a242.23,242.23,0,0,1-35.19-8.84c-2.2-.74-4.5-1.24-7.26-2a7.68,7.68,0,0,0,.8,2c2.07,2.32,4.12,4.66,6.36,6.81a6.75,6.75,0,0,0,3.12,1.44c6.68,1.51,13.41,2.84,20.07,4.41,4.9,1.15,9.73,2.59,14.6,3.88C303.22,213.64,304.56,213.88,306,214.2Z"/><path class="cls-2" d="M160.5,425.21l10.16-2.09c.64-7,1.16-14.12,2-21.2s1.83-13.87,2.86-21.5c-2.56,1.9-4.63,3.3-6.52,4.92-.54.46-.61,1.55-.78,2.37-1.52,7.64-2.95,15.31-4.54,22.94-.88,4.18-2,8.3-3,12.46A12.56,12.56,0,0,0,160.5,425.21Z"/><path class="cls-2" d="M291.51,121.17c.63-.87,1.1-1.42,1.46-2a275.6,275.6,0,0,0,14.35-26.93c3.75-8.39,8-16.59,11.19-25.22a3,3,0,0,0-.73-3.73c-1-1-1.81-2.12-2.79-3.1A34.05,34.05,0,0,0,312.32,58a13.47,13.47,0,0,0-.54,2.25c-.14,5.42-1.81,10.54-3.28,15.66a155.19,155.19,0,0,1-5.81,16.32c-2.38,5.73-5.13,11.31-7.88,16.88a50.84,50.84,0,0,1-4,6.56C289.41,117.57,289.73,119.18,291.51,121.17Z"/><path class="cls-2" d="M176.55,321.22c2.83.4,5.34.93,7.86,1.07,8.46.49,16.74,2.14,25.05,3.64,6.2,1.13,12.44,2.05,18.66,3.11a2.87,2.87,0,0,0,2.67-.64c1.14-1,2.32-2,3.85-3.36a29.19,29.19,0,0,0-2.92-.84c-3.26-.56-6.54-1-9.8-1.59-3-.53-6.08-1.2-9.13-1.7-9.27-1.55-18.56-3-27.85-4.56-1.16-.19-2.3-.5-3.46-.62-2.42-.25-3.57.54-4.28,2.85C177,319.29,176.85,320,176.55,321.22Z"/><path class="cls-2" d="M274.81,82.21c.35-1.32.78-2.62,1.05-3.95.81-3.88,1.54-7.77,2.31-11.66,1.67-8.29,3.37-16.57,5-24.87.95-4.84.44-4-2.61-6.74a17.62,17.62,0,0,0-2.13-1.44c-1.17.92-1.06,2.17-1.26,3.27-.86,4.64-1.54,9.31-2.56,13.91-1.46,6.58-3.13,13.1-4.75,19.64a6.4,6.4,0,0,0,.47,5.23c1.33,2.17,2.45,4.46,3.66,6.7Z"/><path class="cls-2" d="M271.89,87.88c-1.17-2.37-2.43-4.7-3.51-7.11a10.81,10.81,0,0,0-6.57-6.35,45.33,45.33,0,0,1-8.24-4.32c-5.65-3.43-11.23-7-16.83-10.54-2.36-1.48-4.68-3-7-4.49a3.23,3.23,0,0,0-1.06-.15,13.49,13.49,0,0,0,.87,6.9,4.68,4.68,0,0,0,2,2c9,5.54,18.11,11,27.13,16.55,4.26,2.63,8.43,5.39,12.64,8.09Z"/><path class="cls-2" d="M349.4,174.08l-2.41,2.4c-5.3,5.29-10.45,10.75-16,15.82-4.71,4.35-9.78,8.31-14.77,12.36a28.47,28.47,0,0,1-4.36,2.68c-1.75,1-2,1.34-1.73,3.27.16,1,.41,2.07.63,3.16,1,.58,1.9-.09,2.62-.58,4.6-3.12,9.29-6.15,13.68-9.56,4-3.08,7.63-6.53,11.3-9.95,2.67-2.48,5.13-5.16,7.68-7.77a2.72,2.72,0,0,0,.56-.78,77.47,77.47,0,0,0,3.54-10.56Z"/><path class="cls-2" d="M276.57,31.82l-6.75-4.76c-.45,1.59-.81,2.69-1.07,3.81-1.29,5.62-2.52,11.26-3.83,16.87-.78,3.33-1.69,6.62-2.48,9.94a3.14,3.14,0,0,0,.06,1.85c1.2,2.74,2.5,5.43,3.79,8.13.12.25.46.4.8.69,1.24-.61,1.35-1.9,1.6-2.93,2.59-10.36,5.1-20.74,7.6-31.12A18.23,18.23,0,0,0,276.57,31.82Z"/><path class="cls-2" d="M291.59,281.58a41.76,41.76,0,0,0-9.27,7.71,62.33,62.33,0,0,1,1.9,6.6q1.38,7.91,2.39,15.87c.93,7.19,1.7,14.41,2.58,21.62a9.46,9.46,0,0,0,.78,2.09c1.74-2.54,3-7.59,2.8-11.21-.42-8.13-.81-16.26-1.36-24.37a86.1,86.1,0,0,1,.18-15.4A27.25,27.25,0,0,0,291.59,281.58Z"/><path class="cls-2" d="M114.24,403.16a36.83,36.83,0,0,0,5-.24c7.48-1.42,15.08-1.59,22.63-2.29a5.2,5.2,0,0,0,2.58-1c3.14-2.4,6.19-4.9,9.54-7.59a5.31,5.31,0,0,0-1.67-.64c-9.29.48-18.56,1.05-27.84,1.49a5.83,5.83,0,0,0-4.88,2.48c-1.13,1.55-2.45,3-3.58,4.53A31.53,31.53,0,0,0,114.24,403.16Z"/><path class="cls-2" d="M140.78,359.14c1.08.11,2.1.29,3.12.32,8.88.24,17.75.43,26.63.69,6.85.2,13.7.47,20.54.7.53,0,1.2.13,1.56-.14,1.69-1.24,3.84-1.92,5.21-4.14a21,21,0,0,0-2.59-.49q-15.08-.79-30.15-1.54c-6.3-.31-12.6-.5-18.89-.87-1.72-.11-3,.31-3.7,1.86C142,356.63,140.73,357.4,140.78,359.14Z"/><path class="cls-2" d="M187.06,364.53c-1.12-.13-2.25-.29-3.38-.36-7.15-.44-14.31-.83-21.47-1.3-4.59-.3-9.18-.69-13.78-1.09-2.55-.22-5.12-.44-7.66-.82a2.68,2.68,0,0,0-3,1.21c-1,1.5-2,2.94-3.29,4.82,1.82.13,3.06.28,4.32.31,4.59.11,9.2.05,13.78.3,7.37.39,14.73.94,22.09,1.5a21.1,21.1,0,0,1,3.44.79,5.16,5.16,0,0,0,4.61-.67c1.58-1.23,3.06-2.58,4.59-3.88C187.22,365.07,187.14,364.8,187.06,364.53Z"/><path class="cls-2" d="M127.12,376.36c1.26.16,2,.32,2.69.33,4.28.05,8.56-.06,12.83.11,6.18.26,12.34.68,18.51,1.09,2.44.16,4.88.6,7.32.68a6.21,6.21,0,0,0,3.28-.88,43.53,43.53,0,0,0,4.38-3.44c-.9-1.11-2-1-3-1-6.38-.51-12.79-.9-19.16-1.48-5.85-.54-11.68-1.26-17.52-1.9a11.12,11.12,0,0,0-2.56-.18,3.78,3.78,0,0,0-2.24.88C130.12,372.27,128.79,374.19,127.12,376.36Z"/><path class="cls-2" d="M226.92,43.84a13.59,13.59,0,0,0,.88,6.22,4.87,4.87,0,0,0,2,1.94c3,1.86,6,3.61,9.06,5.45,6.47,4,12.91,8,19.38,12a7.78,7.78,0,0,0,4.33,1.6,15.19,15.19,0,0,0-.53-2c-.94-2.16-2-4.26-2.88-6.45a6.69,6.69,0,0,0-3.72-3.77,273.61,273.61,0,0,1-26-13.87A25.82,25.82,0,0,0,226.92,43.84Z"/><path class="cls-2" d="M50,243.94a6.48,6.48,0,0,0,.73.73c5.29,2.92,5.33,3,10.23-.41,6.32-4.35,12.59-8.79,18.85-13.22a10.51,10.51,0,0,0,1.42-1.64,31.8,31.8,0,0,0-3.4-.76c-2.65-.27-5.32-.45-8-.65A4.66,4.66,0,0,0,66,229.07c-4.91,4.59-9.9,9.08-14.86,13.61C50.75,243,50.43,243.43,50,243.94Z"/><path class="cls-2" d="M82.2,224.28a11.54,11.54,0,0,0-1-1.5Q70.62,212.31,60,201.86c-2-1.93-2.43-2.08-5.07-1-1.29.53-2.57,1.08-3.85,1.63-.17.08-.29.3-.54.57.62,1.62,2.13,2.49,3.36,3.6l18,16.36c.38.34.81.84,1.26.88C76,224.14,78.86,224.85,82.2,224.28Z"/><path class="cls-2" d="M217.85,294.7c1.72.37,2.74.61,3.76.79C229.82,297,238,298.4,246.23,300c3.77.75,7.5,1.8,11.19,2.86a2.92,2.92,0,0,0,3.45-.83c.87-1,1.84-2,2.9-3.05a21.25,21.25,0,0,0-9-3.16c-8.44-1.44-16.92-2.63-25.36-4.1C225.35,291,221.86,292.12,217.85,294.7Z"/><path class="cls-2" d="M269.16,207.79c2.25,4.19,6.41,7.58,10.24,8.52,6.64,1.62,13.3,3.21,19.94,4.84,2.66.66,5.32,1.38,8.22,2.14.08-1.2.22-2,.19-2.85-.11-2.56-.48-3.14-3-3.81-7.34-1.95-14.7-3.82-22.06-5.7q-5.28-1.35-10.58-2.65C271.21,208.07,270.31,208,269.16,207.79Z"/><path class="cls-2" d="M260.88,54.72A22,22,0,0,0,262,52c1.54-5.44,3-10.89,4.51-16.34.67-2.47,1.35-4.94,1.87-7.45a2.93,2.93,0,0,0-.4-2.33,22.87,22.87,0,0,0-6.31-4.24c-.46,1.47-.94,2.65-1.2,3.87-1,4.91-2,9.83-3,14.74a9.81,9.81,0,0,1-.92,3.37,3.91,3.91,0,0,0,0,4.46C257.83,50.28,258.45,52.86,260.88,54.72Z"/><path class="cls-2" d="M289.33,278.11c-.89-2-1.94-2.74-3.53-2.09-2.38,1-4.84.79-7.28.63-7.64-.52-15.13.52-22.58,2-.49.1-1,.31-2,.64a14.12,14.12,0,0,0,2,.94c4.77,1.2,9.55,2.33,14.3,3.54,2.27.57,4.5,1.33,6.77,1.9.77.19,1.85.41,2.37,0C282.77,283.31,286,280.72,289.33,278.11Z"/><path class="cls-2" d="M312.58,222.76a31.07,31.07,0,0,0,3-1.68c4.57-3.35,9.17-6.67,13.65-10.15,3.45-2.69,6.8-5.54,10.07-8.45a10,10,0,0,0,2.34-3.38,33.81,33.81,0,0,0,2.91-9.11c-3.26,3.32-6.56,6.61-9.79,10-5.89,6.12-12.22,11.67-20,15.34-1.22.58-2.34,1.34-3.56,2C311.69,219.25,312.1,220.86,312.58,222.76Z"/><path class="cls-2" d="M137.13,404.53a19.62,19.62,0,0,0-6.26-.41c-4.91.3-9.82.75-14.73.95-2.47.1-4.25.8-5.39,3.17-1,2-2.27,3.79-3.65,6a14.75,14.75,0,0,0,2.27.16c5.31-.61,10.63-1.17,15.92-1.94a11.39,11.39,0,0,0,4.42-1.62c2.24-1.44,4.29-3.19,6.38-4.85A7.64,7.64,0,0,0,137.13,404.53Z"/><path class="cls-2" d="M41,207.49c5.92,5,11.63,9.85,17.39,14.63a4.48,4.48,0,0,0,2.31,1c2.43.25,4.88.31,7.79.48a17.9,17.9,0,0,0-1.29-1.64c-5.6-5.45-11.22-10.87-16.83-16.32-2.15-2.1-2.3-2.19-5-1C43.89,205.24,42.27,205.63,41,207.49Z"/><path class="cls-2" d="M254.53,54.68c-.47-2.53-1.45-4.27-3.42-5.41a129.93,129.93,0,0,1-21.27-15.36,10.19,10.19,0,0,0-3-1.75A1.29,1.29,0,0,0,225,33.62a47.7,47.7,0,0,0,1.32,6.26,3,3,0,0,0,1.5,1.51Q240,47.86,252.2,54.2A10.57,10.57,0,0,0,254.53,54.68Z"/><path class="cls-2" d="M139.33,409.18c-.54,0-.92-.13-1.13,0-2.77,1.76-5.75,3.36-7.21,6.52-2.1,4.55-4.16,9.14-6,13.79a8.27,8.27,0,0,0-.18,4.06c.2,1.45,1.31,1.81,2.64,1.06a7,7,0,0,0,1.26-1,18.16,18.16,0,0,1,1.83-1.79c4.25-3.06,5.27-7.74,6.35-12.42.65-2.81,1.48-5.57,2.2-8.36A18.32,18.32,0,0,0,139.33,409.18Z"/><path class="cls-2" d="M313.48,232.43a32.84,32.84,0,0,0,3.43-1.31,76.39,76.39,0,0,0,13.28-9.45,9.61,9.61,0,0,0,2.26-2.66c1.58-2.79,3-5.66,4.49-8.52a12.09,12.09,0,0,0,.62-2.16,22,22,0,0,0-5.65,4c-3.56,3-7.05,6.19-10.73,9.08a41.53,41.53,0,0,1-6.78,4.22,2.76,2.76,0,0,0-1.62,3.65C313,230.14,313.16,231,313.48,232.43Z"/><path class="cls-2" d="M254.15,41.66c3-6.61,3.48-14,6.25-20.49a11.29,11.29,0,0,0-6.55-4.11c-.39,1.76-.76,3.52-1.18,5.27-.89,3.73-1.85,7.45-2.67,11.19a4.61,4.61,0,0,0,.15,2.76c.91,1.89,2.09,3.66,3.16,5.47Z"/><path class="cls-2" d="M62.48,228.12a11.45,11.45,0,0,0-6.21-.7,6.91,6.91,0,0,0-3.13,1.38,75,75,0,0,1-10.94,8.83A13.24,13.24,0,0,0,40,240l7.46,3.22A149,149,0,0,0,62.48,228.12Z"/><path class="cls-2" d="M151.2,399.21c-2.2,1.77-4.28,3.38-6.27,5.08a3,3,0,0,0-.63,1.45c-1.68,5.75-3.37,11.5-5,17.26a4.61,4.61,0,0,0,0,1.15,30.12,30.12,0,0,0,4.71-.4,2.88,2.88,0,0,0,1.57-1.76c1-2.93,2-5.88,2.81-8.88,1.14-4.22,2.12-8.48,3.14-12.74C151.59,400.13,151.38,399.82,151.2,399.21Z"/><path class="cls-2" d="M249.58,44.23c-1.72-3.16-3.42-6.33-5.17-9.47a3.89,3.89,0,0,0-1.13-1.12c-4.09-2.89-8.21-5.77-12.32-8.64a2.91,2.91,0,0,0-.87-.19,13.44,13.44,0,0,0,0,6.46c.13.61.88,1.18,1.47,1.61q7,5.1,14,10.11A29.49,29.49,0,0,0,249,44.76Z"/><path class="cls-2" d="M54.32,222.21,51.7,219.6,43,210.75c-.07-.08-.12-.18-.19-.26-2.61-2.89-4.08-2.92-6.82,0-.57.6-1,1.31-1.76,2.25,1.2,1,2.26,1.8,3.3,2.66,2.63,2.17,5.24,4.38,7.9,6.51A4.31,4.31,0,0,0,47.59,223c2.1.11,4.21,0,6.33-.09Z"/><path class="cls-2" d="M123.49,415.48a12.29,12.29,0,0,0-2.14-.35c-4,.3-8.08.79-12.14.91a5.74,5.74,0,0,0-5.3,2.86c-1,1.66-2.11,3.22-3.12,4.86a23.22,23.22,0,0,0-1.09,2.47c1.48-.4,2.49-.63,3.47-1,3.25-1,6.43-2.39,9.74-3.13C117.12,421.21,119.83,418.32,123.49,415.48Z"/><path class="cls-2" d="M127.38,417c-3.42,2.47-6.28,4.49-9.1,6.58a2.83,2.83,0,0,0-.86,1.33c-.85,2.5-2.55,4.43-4.07,6.51-1.19,1.61-2.42,3.26-2.63,5.32a1.49,1.49,0,0,0,2.31.42c2.82-1.93,5.63-3.9,8.4-5.92a3.75,3.75,0,0,0,1.11-1.54q2.4-5.44,4.7-10.93A9,9,0,0,0,127.38,417Z"/><path class="cls-2" d="M281.92,220.37c2.62,2,5.06,4.33,7.9,5.93,2.08,1.17,4.68,1.47,7.07,2,3.12.76,6.27,1.43,9.42,2.1a19.21,19.21,0,0,0,2.16.19c-.07-1.45-.12-2.69-.19-4.24l-25.92-6.94C282.21,219.77,282.07,220.07,281.92,220.37Z"/><path class="cls-2" d="M229.89,0c.38.85.69,1.74,1.14,2.54q5.1,9.09,10.26,18.13c.13.22.55.29.94.48,1.42-1.46,1-3.42,1.4-5.09s.69-3.34,1-4.91C241.46,7.91,232.15.39,229.89,0Z"/><path class="cls-2" d="M248.43,31.93c.61-2.07,1.2-3.76,1.61-5.49.72-3,1.33-6.07,2-9.1a2.36,2.36,0,0,0-1.36-2.91c-1.4-.75-2.75-1.6-4.36-2.55a9.28,9.28,0,0,0-1,2.15c-.46,3.4-.84,6.81-1.22,10.21a2.22,2.22,0,0,0,0,1.26C245.42,27.54,246.18,29.92,248.43,31.93Z"/><path class="cls-2" d="M49.86,227.58a15.7,15.7,0,0,0-6.35-.3,2.25,2.25,0,0,0-1.16.48q-4.82,3.75-9.56,7.56a6.29,6.29,0,0,0-.88,1.19,12.37,12.37,0,0,0,5.21,2.35,2.3,2.3,0,0,0,1.76-.5c3.58-3.21,7.1-6.47,10.63-9.75C49.71,228.43,49.71,228,49.86,227.58Z"/><path class="cls-2" d="M24,215c1.58,2.16,8.76,7.38,10.68,7.79a17.7,17.7,0,0,0,7.24-.07,9,9,0,0,0-1.1-1.7c-2.4-2.26-4.88-4.43-7.25-6.73a3.39,3.39,0,0,0-3.75-1C28,213.93,26,214.44,24,215Z"/><path class="cls-2" d="M108.74,425.79c-1.24.25-2.48.47-3.7.77-.72.19-1.4.57-2.12.74-6.75,1.6-5.55,1.77-8.84,6.55-1.75,2.52-3.34,5.14-5.15,7.95,2.35-.35,2.33-.37,7.31-4.65,2.11-1.82,4.47-3.37,6.44-5.32s4.69-3.19,6.4-5.45Z"/><path class="cls-2" d="M14.13,217.8c.88.77,1.53,1.42,2.26,2s1.47.86,2.18,1.34c3.88,2.66,5.36,2.88,10.72,1.31-1.56-1.4-2.9-2.69-4.34-3.88-4.1-3.37-4.11-3.36-9.12-1.68A14.25,14.25,0,0,0,14.13,217.8Z"/><path class="cls-2" d="M22.74,233.23c2,.81,3.41,1.48,4.9,2a2.31,2.31,0,0,0,1.79-.32A34.76,34.76,0,0,0,36.58,228c-2-1.51-5.7-1.68-7.41-.3C27.18,229.34,25.28,231.06,22.74,233.23Z"/><path class="cls-2" d="M314,238.85c4.46-1.61,10.88-7.75,12.93-12.28A40.06,40.06,0,0,1,313.32,234C313.55,235.73,313.74,237.15,314,238.85Z"/><path class="cls-2" d="M239.32,26.73c-.08-2.15-1.25-3.45-1.83-5-1.37-3.59-4.51-4.26-7.63-5.19-.75,3.51-.6,3.91,1.78,5.51,1.84,1.24,3.62,2.57,5.48,3.8A13,13,0,0,0,239.32,26.73Z"/><path class="cls-2" d="M94.3,442.42c1.78-.93,3.54-1.87,5.32-2.79,2.18-1.14,4.34-2.33,6.56-3.37a6.4,6.4,0,0,0,3.53-3.51c.53-1.26,1.31-2.42,2.23-4.11-3.92,1.54-6.39,4.35-9.33,6.45s-5.88,4.4-8.82,6.61Z"/><path class="cls-2" d="M309.63,238.12a23.45,23.45,0,0,0-.52-3.19,2.19,2.19,0,0,0-1.15-1.36c-3.54-1.09-7.12-2.07-10.7-3.06-.15,0-.36.15-.55.23,0,.21,0,.52.06.59,3.19,2.28,6.39,4.57,9.63,6.79A2.47,2.47,0,0,0,309.63,238.12Z"/><path class="cls-2" d="M16.31,230.71c1.26.54,2.47,1.12,3.73,1.53a1.87,1.87,0,0,0,1.47-.28c1.43-1.2,2.78-2.52,4.23-3.84C22,225.73,18.56,227,16.31,230.71Z"/><path class="cls-2" d="M17,222.58c-1.31-1.31-2.49-2.63-3.84-3.76a2.66,2.66,0,0,0-2-.45,31.46,31.46,0,0,0-3.79,1.38C9.36,223.56,12.64,224.5,17,222.58Z"/><path class="cls-2" d="M229.47,7.93a13.49,13.49,0,0,0,.09,6,3,3,0,0,0,1.38,1.64,29.57,29.57,0,0,0,3.19,1.57C234.11,14.81,232,10.58,229.47,7.93Z"/><path class="cls-2" d="M16.65,227.4a18,18,0,0,0-10.17-.05,23.37,23.37,0,0,0,6.82,2.42C14.8,230.09,15.42,228.67,16.65,227.4Z"/><path class="cls-2" d="M7.5,223.26c-2.1-2.95-4.24-3-7.5,0A15.85,15.85,0,0,0,7.5,223.26Z"/></g></g></g></svg>