<svg xmlns="http://www.w3.org/2000/svg" viewBox="0 0 69.57 69.57"><defs><style>.cls-1{fill:#fab412;}</style></defs><g id="Livello_2" data-name="Livello 2"><g id="Talamello"><circle class="cls-1" cx="34.79" cy="34.79" r="19.86" transform="translate(-10.56 15.71) rotate(-22.18)"/><path class="cls-1" d="M34.88,15,32,12.19a4.43,4.43,0,0,1-1.06-4.85L33,2.06A4.32,4.32,0,0,1,34.64,0a4.2,4.2,0,0,1,1.73,2l2.26,5.22a4.43,4.43,0,0,1-.91,4.89Z"/><path class="cls-1" d="M25,17.58,21,16.64A4.43,4.43,0,0,1,17.69,13l-.83-5.63a4.27,4.27,0,0,1,.41-2.61,4.28,4.28,0,0,1,2.49.87L24.33,9A4.42,4.42,0,0,1,26,13.68Z"/><path class="cls-1" d="M17.67,24.79l-3.86,1.15a4.41,4.41,0,0,1-4.74-1.5L5.54,20a4.34,4.34,0,0,1-1-2.46A4.3,4.3,0,0,1,7.18,17l5.65.66a4.41,4.41,0,0,1,3.78,3.23Z"/><path class="cls-1" d="M15,34.69l-2.78,2.93a4.41,4.41,0,0,1-4.85,1.06L2.06,36.59A4.32,4.32,0,0,1,0,34.93a4.13,4.13,0,0,1,2-1.72L7.22,31a4.43,4.43,0,0,1,4.89.9Z"/><path class="cls-1" d="M17.58,44.61l-.94,3.92A4.42,4.42,0,0,1,13,51.88l-5.63.83a4.27,4.27,0,0,1-2.61-.41,4.28,4.28,0,0,1,.87-2.49L9,45.24a4.39,4.39,0,0,1,4.68-1.65Z"/><path class="cls-1" d="M24.79,51.9l1.15,3.87a4.4,4.4,0,0,1-1.5,4.73L20,64a4.27,4.27,0,0,1-2.46,1,4.28,4.28,0,0,1-.5-2.59l.66-5.65A4.42,4.42,0,0,1,20.91,53Z"/><path class="cls-1" d="M34.69,54.6l2.93,2.78a4.41,4.41,0,0,1,1.06,4.85l-2.09,5.28a4.32,4.32,0,0,1-1.66,2.06,4.13,4.13,0,0,1-1.72-2L31,62.35a4.41,4.41,0,0,1,.9-4.88Z"/><path class="cls-1" d="M44.61,52l3.92.94a4.4,4.4,0,0,1,3.35,3.66l.83,5.63a4.27,4.27,0,0,1-.41,2.61A4.21,4.21,0,0,1,49.81,64l-4.57-3.39a4.42,4.42,0,0,1-1.65-4.69Z"/><path class="cls-1" d="M51.9,44.78l3.87-1.15a4.42,4.42,0,0,1,4.73,1.5L64,49.59a4.27,4.27,0,0,1,1,2.46,4.15,4.15,0,0,1-2.59.5l-5.65-.66A4.42,4.42,0,0,1,53,48.67Z"/><path class="cls-1" d="M54.6,34.88,57.38,32a4.43,4.43,0,0,1,4.85-1.06L67.51,33a4.32,4.32,0,0,1,2.06,1.66,4.23,4.23,0,0,1-2,1.73l-5.23,2.26a4.42,4.42,0,0,1-4.88-.91Z"/><path class="cls-1" d="M52,25,52.94,21a4.41,4.41,0,0,1,3.66-3.35l5.63-.83a4.27,4.27,0,0,1,2.61.41A4.21,4.21,0,0,1,64,19.76l-3.39,4.57A4.44,4.44,0,0,1,55.89,26Z"/><path class="cls-1" d="M44.78,17.67l-1.15-3.86a4.43,4.43,0,0,1,1.5-4.74l4.46-3.53a4.34,4.34,0,0,1,2.46-1,4.16,4.16,0,0,1,.5,2.59l-.66,5.65a4.41,4.41,0,0,1-3.22,3.78Z"/></g></g></svg>