<svg xmlns="http://www.w3.org/2000/svg" viewBox="0 0 90.9 95.74"><defs><style>.cls-1{fill:#ec6906;}.cls-2,.cls-3{fill:none;}.cls-2{stroke:#ec6906;stroke-miterlimit:10;}.cls-3{stroke:#fff;stroke-linecap:round;stroke-linejoin:round;stroke-width:0.5px;}</style></defs><g id="Livello_2" data-name="Livello 2"><g id="Talamello"><path class="cls-1" d="M41.05,3.3C33.31,11,35.4,18.6,33,25.12,19,29.66,4.41,28.06,4.41,28.06a3.88,3.88,0,0,0-4.22,5C5.36,49,13.08,56.43,19.18,59.9A53.65,53.65,0,0,0,14,77.19,3.55,3.55,0,0,0,18.63,81c27.27-9,26.82-26,26.82-26.42,0,.44-.45,17.46,26.82,26.42a3.55,3.55,0,0,0,4.63-3.84A53.63,53.63,0,0,0,71.72,59.9c6.1-3.47,13.82-10.93,19-26.84a3.88,3.88,0,0,0-4.22-5s-10.24,1.6-28.57-2.94C55.51,18.6,57.59,11,49.85,3.3,45.45-1.1,45.45-1.1,41.05,3.3Z"/><line class="cls-2" x1="45.45" y1="54.61" x2="45.45" y2="95.74"/><polyline class="cls-3" points="23.44 69.28 45.45 42.87 14.64 38.47"/><polyline class="cls-3" points="67.46 69.28 45.45 42.87 76.26 38.47"/><line class="cls-3" x1="45.45" y1="42.87" x2="45.45" y2="20.86"/></g></g></svg>