<svg xmlns="http://www.w3.org/2000/svg" viewBox="0 0 51.59 70.65"><defs><style>.cls-1{fill:none;stroke:#9a6699;stroke-linecap:round;stroke-linejoin:round;}.cls-2{fill:#9a6699;}</style></defs><g id="Livello_2" data-name="Livello 2"><g id="Talamello"><line class="cls-1" x1="25.78" y1="70.15" x2="25.78" y2="48.95"/><path class="cls-2" d="M0,51.56C4.11,26.88,18.41,25.78,18.41,25.78h0a7.37,7.37,0,0,1,7.37,7.36h0S24.68,47.44,0,51.56Z"/><path class="cls-2" d="M25.78,51.56c-5.63-7.88-2-12.09-2-12.09h0a2.85,2.85,0,0,1,4,0h0S31.4,43.68,25.78,51.56Z"/><path class="cls-2" d="M25.78,0c5.62,7.87,2,12.08,2,12.08h0a2.84,2.84,0,0,1-4,0h0S20.15,7.87,25.78,0Z"/><path class="cls-2" d="M0,25.78c7.87-5.63,12.08-2,12.08-2h0a2.84,2.84,0,0,1,0,4h0S7.87,31.4,0,25.78Z"/><path class="cls-2" d="M51.56,51.56C26.88,47.44,25.78,33.14,25.78,33.14h0a7.37,7.37,0,0,1,7.36-7.36h0S47.44,26.88,51.56,51.56Z"/><path class="cls-2" d="M51.56,0C47.44,24.68,33.14,25.78,33.14,25.78h0a7.37,7.37,0,0,1-7.36-7.37h0S26.88,4.11,51.56,0Z"/><path class="cls-2" d="M0,0C24.68,4.11,25.78,18.41,25.78,18.41h0a7.37,7.37,0,0,1-7.37,7.37h0S4.11,24.68,0,0Z"/><path class="cls-2" d="M51.59,25.78c-7.88,5.62-12.09,2-12.09,2h0a2.84,2.84,0,0,1,0-4h0S43.71,20.15,51.59,25.78Z"/></g></g></svg>