<svg xmlns="http://www.w3.org/2000/svg" viewBox="0 0 71.32 71.32"><defs><style>.cls-1{fill:#00a9e3;stroke:#00a9e3;stroke-miterlimit:10;}</style></defs><g id="Livello_2" data-name="Livello 2"><g id="Talamello"><polygon class="cls-1" points="35.66 35.66 20.07 35.66 12.28 29.29 4.48 29.29 0.59 35.66 4.48 42.03 12.28 42.03 20.07 35.66 35.66 35.66"/><polygon class="cls-1" points="35.66 35.54 27.39 43.8 19.88 44.56 15.75 48.69 17.06 54.14 22.51 55.45 26.64 51.32 27.39 43.8 35.66 35.54"/><polygon class="cls-1" points="35.66 35.54 43.93 43.8 44.68 51.32 48.81 55.45 54.26 54.14 55.58 48.69 51.44 44.56 43.93 43.8 35.66 35.54"/><polygon class="cls-1" points="35.66 35.54 43.93 27.27 51.44 26.52 55.58 22.38 54.26 16.94 48.81 15.62 44.68 19.76 43.93 27.27 35.66 35.54"/><polygon class="cls-1" points="35.66 35.54 27.39 27.27 26.64 19.76 22.51 15.62 17.06 16.94 15.75 22.38 19.88 26.52 27.39 27.27 35.66 35.54"/><polygon class="cls-1" points="35.66 35.66 35.66 51.25 29.29 59.04 29.29 66.84 35.66 70.73 42.03 66.84 42.03 59.04 35.66 51.25 35.66 35.66"/><polygon class="cls-1" points="35.66 35.66 51.25 35.66 59.04 42.03 66.84 42.03 70.73 35.66 66.84 29.29 59.04 29.29 51.25 35.66 35.66 35.66"/><polygon class="cls-1" points="35.66 35.66 35.66 20.07 42.03 12.28 42.03 4.48 35.66 0.59 29.29 4.48 29.29 12.28 35.66 20.07 35.66 35.66"/></g></g></svg>