<svg id="Livello_1" data-name="Livello 1" xmlns="http://www.w3.org/2000/svg" viewBox="0 0 112 67"><defs><style>.cls-1{fill:#fff;}.cls-2,.cls-3{fill:none;stroke:#fff;}.cls-2{stroke-miterlimit:10;}.cls-3{stroke-linecap:round;stroke-linejoin:round;}</style></defs><path class="cls-1" d="M77.69,17.79a66.54,66.54,0,0,0-8.22,7.58,56.62,56.62,0,0,0-6.22,8.11,39.31,39.31,0,0,0-3.92,8.18A24.54,24.54,0,0,0,58,49.44a16.52,16.52,0,0,0,.46,4,10.56,10.56,0,0,0,1.32,3.22,6.83,6.83,0,0,0,2.09,2.12,5,5,0,0,0,2.74.77h.49a9.05,9.05,0,0,1,2.16,0c.21.18-1.11.63-1.11.92s1.53.21,1.22.34a9.61,9.61,0,0,1-2,.55,10.11,10.11,0,0,1-4.27-.76,8.15,8.15,0,0,1-2.72-2.49,12.5,12.5,0,0,1-1.76-3.77A16.94,16.94,0,0,1,56,49.68a27.32,27.32,0,0,1,1.43-8.51,39.57,39.57,0,0,1,4.22-8.79,58.73,58.73,0,0,1,6.92-8.8A83.61,83.61,0,0,1,78.08,15l.34-.23a.91.91,0,0,1,.5-.13c.33,0,.77-.68.93-.46a5,5,0,0,1,0,1.56c0,.12,0,.37,0,.76s-.06.86-.09,1.41-.08,1.18-.13,1.85-.1,1.36-.13,2.05-.07,1.36-.09,2,0,1.22,0,1.73a57.53,57.53,0,0,0,.86,10.6,28.32,28.32,0,0,0,2.83,8.43,15.25,15.25,0,0,0,5,5.58,13.14,13.14,0,0,0,7.38,2,17,17,0,0,0,5.68-.87,12.6,12.6,0,0,0,4.1-2.33,9.76,9.76,0,0,0,2.49-3.26,8.79,8.79,0,0,0,.84-3.71,7.5,7.5,0,0,0-.56-3,6.6,6.6,0,0,0-1.55-2.26,6.69,6.69,0,0,0-2.32-1.42,8.45,8.45,0,0,0-2.88-.48,9.32,9.32,0,0,0-2.39.29,10.85,10.85,0,0,0-1.84.64,9.13,9.13,0,0,0-1.19.66,4.2,4.2,0,0,0-.48.35L95,37A10.67,10.67,0,0,1,92.93,38c-.2-.17,1.29-1.11,1.1-1.28s-1.81.3-1.81,0,1.63-1.27,1.86-1.45c0,0,.22-.18.57-.43a8.78,8.78,0,0,1,1.46-.81,14.33,14.33,0,0,1,2.24-.8,10.63,10.63,0,0,1,2.91-.37,10.26,10.26,0,0,1,3.67.65,8.45,8.45,0,0,1,2.94,1.87,8.71,8.71,0,0,1,1.94,2.87,9.36,9.36,0,0,1,.71,3.68,10.7,10.7,0,0,1-1,4.43,11.43,11.43,0,0,1-2.87,3.89,14.56,14.56,0,0,1-4.7,2.74,18.51,18.51,0,0,1-6.46,1A15.5,15.5,0,0,1,87.35,52a16.3,16.3,0,0,1-5.64-5.81,29.07,29.07,0,0,1-3.28-9,60.28,60.28,0,0,1-1.06-11.73c0-1.21,0-2.46.08-3.74S77.58,19.12,77.69,17.79Z"/><circle class="cls-2" cx="88.77" cy="39.61" r="3.46"/><path class="cls-2" d="M88.75,43.07l.51.48a.79.79,0,0,1,.19.85l-.37.92a.3.3,0,1,1-.59,0l-.39-.91a.76.76,0,0,1,.15-.85Z"/><path class="cls-2" d="M90.48,42.61l.68.17a.77.77,0,0,1,.59.64l.14,1a.73.73,0,0,1-.07.46.79.79,0,0,1-.43-.16l-.8-.59a.78.78,0,0,1-.29-.82Z"/><path class="cls-2" d="M91.75,41.35l.68-.2a.76.76,0,0,1,.82.27l.62.77a.8.8,0,0,1,.17.43.72.72,0,0,1-.46.09l-1-.11a.77.77,0,0,1-.66-.57Z"/><path class="cls-2" d="M92.22,39.63l.49-.51a.76.76,0,0,1,.84-.19l.93.37a.79.79,0,0,1,.36.29.79.79,0,0,1-.35.3l-.91.39a.77.77,0,0,1-.86-.16Z"/><path class="cls-2" d="M91.77,37.9l.16-.69a.77.77,0,0,1,.64-.58l1-.15a.86.86,0,0,1,.46.07.71.71,0,0,1-.15.44l-.59.8a.79.79,0,0,1-.82.29Z"/><path class="cls-2" d="M90.51,36.63l-.2-.68a.78.78,0,0,1,.26-.83l.78-.61a.8.8,0,0,1,.43-.17.78.78,0,0,1,.09.45l-.12,1a.76.76,0,0,1-.56.66Z"/><path class="cls-2" d="M88.78,36.15l-.51-.48a.77.77,0,0,1-.18-.85l.36-.92a.3.3,0,1,1,.59,0l.4.91a.78.78,0,0,1-.16.85Z"/><path class="cls-2" d="M87.05,36.61l-.68-.17a.77.77,0,0,1-.59-.64l-.14-1a.69.69,0,0,1,.07-.45.7.7,0,0,1,.43.15l.8.59a.77.77,0,0,1,.29.82Z"/><path class="cls-2" d="M85.78,37.87l-.67.2a.79.79,0,0,1-.83-.26L83.66,37a.72.72,0,0,1-.16-.43.69.69,0,0,1,.45-.09l1,.12a.75.75,0,0,1,.65.56Z"/><path class="cls-2" d="M85.31,39.59l-.49.52a.75.75,0,0,1-.84.18l-.92-.36a.75.75,0,0,1-.36-.29.69.69,0,0,1,.35-.3l.91-.4a.77.77,0,0,1,.85.16Z"/><path class="cls-2" d="M85.76,41.33,85.6,42a.76.76,0,0,1-.64.58l-1,.15a.8.8,0,0,1-.46-.07.78.78,0,0,1,.15-.44l.6-.79a.75.75,0,0,1,.81-.29Z"/><path class="cls-2" d="M87,42.6l.2.67a.77.77,0,0,1-.26.83l-.78.61a.73.73,0,0,1-.43.17.76.76,0,0,1-.08-.45l.11-1a.78.78,0,0,1,.56-.66Z"/><polygon class="cls-2" points="56 23.25 52.33 23.25 50.5 21.75 48.67 21.75 47.75 23.25 48.67 24.75 50.5 24.75 52.33 23.25 56 23.25"/><polygon class="cls-2" points="56 23.22 54.06 25.16 52.29 25.34 51.32 26.31 51.63 27.59 52.91 27.9 53.88 26.93 54.06 25.16 56 23.22"/><polygon class="cls-2" points="56 23.22 57.94 25.16 58.12 26.93 59.09 27.9 60.38 27.59 60.68 26.31 59.71 25.34 57.94 25.16 56 23.22"/><polygon class="cls-2" points="56 23.22 57.94 21.27 59.71 21.1 60.68 20.12 60.38 18.84 59.09 18.53 58.12 19.51 57.94 21.27 56 23.22"/><polygon class="cls-2" points="56 23.22 54.06 21.27 53.88 19.51 52.91 18.53 51.63 18.84 51.32 20.12 52.29 21.1 54.06 21.27 56 23.22"/><polygon class="cls-2" points="56 23.25 56 26.91 54.5 28.75 54.5 30.58 56 31.5 57.5 30.58 57.5 28.75 56 26.91 56 23.25"/><polygon class="cls-2" points="56 23.25 59.67 23.25 61.5 24.75 63.33 24.75 64.25 23.25 63.33 21.75 61.5 21.75 59.67 23.25 56 23.25"/><polygon class="cls-2" points="56 23.25 56 19.58 57.5 17.75 57.5 15.91 56 15 54.5 15.91 54.5 17.75 56 19.58 56 23.25"/><path class="cls-2" d="M77.29,53.17c-.33,5.74-3.57,6.35-3.57,6.35h0A1.69,1.69,0,0,1,71.86,58h0S71.75,54.72,77.29,53.17Z"/><path class="cls-2" d="M71.4,53.81c1.48,1.66.76,2.71.76,2.71h0a.65.65,0,0,1-.92.1h0S70.31,55.75,71.4,53.81Z"/><path class="cls-2" d="M72.68,65.59c-1.48-1.66-.76-2.71-.76-2.71h0a.65.65,0,0,1,.92-.1h0S73.77,63.65,72.68,65.59Z"/><path class="cls-2" d="M77.93,59.06c-1.66,1.48-2.71.76-2.71.76h0a.65.65,0,0,1-.1-.92h0S76,58,77.93,59.06Z"/><path class="cls-2" d="M65.51,54.45c5.74.33,6.35,3.57,6.35,3.57h0a1.69,1.69,0,0,1-1.5,1.86h0S67.06,60,65.51,54.45Z"/><path class="cls-2" d="M66.79,66.23c.33-5.74,3.57-6.35,3.57-6.35h0a1.69,1.69,0,0,1,1.86,1.5h0S72.33,64.68,66.79,66.23Z"/><path class="cls-2" d="M78.57,65c-5.74-.33-6.35-3.57-6.35-3.57h0a1.69,1.69,0,0,1,1.5-1.86h0S77,59.41,78.57,65Z"/><path class="cls-2" d="M66.14,60.34c1.66-1.48,2.71-.76,2.71-.76h0a.64.64,0,0,1,.1.92h0S68.08,61.43,66.14,60.34Z"/><path class="cls-2" d="M90.6,4.26c-2.33-.24-3.3,1.12-4.71,1.6a16.59,16.59,0,0,1-4.34-4.34.83.83,0,0,0-1.4,0c-1.94,3-2.13,5.29-1.88,6.77A11.26,11.26,0,0,0,74.7,9.74a.75.75,0,0,0,0,1.28c5.16,3.32,7.92,1,8,.89s-3,2.28-.76,8a.76.76,0,0,0,1.26.25A11.56,11.56,0,0,0,85.35,17c1.4.54,3.68.81,7-.47a.83.83,0,0,0,.26-1.38A17.18,17.18,0,0,1,89.26,10c.75-1.28,2.29-2,2.53-4.28C91.92,4.39,91.92,4.39,90.6,4.26Z"/><line class="cls-2" x1="82.68" y1="11.91" x2="75.86" y2="17.45"/><polyline class="cls-3" points="77.28 10.23 84.63 10.32 81.21 4.62"/><polyline class="cls-3" points="83.22 17.54 84.63 10.32 89.52 14.84"/><line class="cls-3" x1="84.63" y1="10.32" x2="88.28" y2="7.36"/><path class="cls-1" d="M34.55,21.57c.05,1.29.08,2.53.08,3.74A60.28,60.28,0,0,1,33.57,37a29,29,0,0,1-3.28,9,16.39,16.39,0,0,1-5.64,5.81A15.59,15.59,0,0,1,16.48,54a18.51,18.51,0,0,1-6.46-1,14.39,14.39,0,0,1-4.7-2.74,11.49,11.49,0,0,1-2.87-3.88,10.74,10.74,0,0,1-1-4.43,9.37,9.37,0,0,1,.71-3.69A8.71,8.71,0,0,1,4.13,35.3a8.43,8.43,0,0,1,2.94-1.86,10.05,10.05,0,0,1,3.67-.66,10.63,10.63,0,0,1,2.91.37,14.33,14.33,0,0,1,2.24.8,9.57,9.57,0,0,1,1.46.81,6.77,6.77,0,0,1,.57.44c.23.17,1.86,1.11,1.86,1.44s-1.61-.18-1.81,0,1.3,1.11,1.1,1.29A11.3,11.3,0,0,1,17,36.83l-.31-.17s-.19-.15-.48-.35A9.13,9.13,0,0,0,15,35.65,11.81,11.81,0,0,0,13.15,35a9.32,9.32,0,0,0-2.39-.29,8.22,8.22,0,0,0-2.88.49,6.52,6.52,0,0,0-2.32,1.41A6.69,6.69,0,0,0,4,38.88a7.5,7.5,0,0,0-.56,3,8.76,8.76,0,0,0,.84,3.71,9.7,9.7,0,0,0,2.49,3.27,12.77,12.77,0,0,0,4.1,2.32,17,17,0,0,0,5.68.88,13.14,13.14,0,0,0,7.38-2,15.22,15.22,0,0,0,5-5.57,28.51,28.51,0,0,0,2.83-8.43,57.72,57.72,0,0,0,.86-10.61c0-.51,0-1.08,0-1.73s-.05-1.32-.09-2-.08-1.37-.13-2-.09-1.29-.13-1.85-.06-1-.09-1.42,0-.64,0-.76a5,5,0,0,1,0-1.56c.16-.21.6.46.93.46a.91.91,0,0,1,.5.13l.34.24a83.61,83.61,0,0,1,9.51,8.55,58.68,58.68,0,0,1,6.92,8.79A39.57,39.57,0,0,1,54.57,41,27.37,27.37,0,0,1,56,49.54a16.89,16.89,0,0,1-.63,4.72A12.68,12.68,0,0,1,53.61,58a8.36,8.36,0,0,1-2.72,2.49,10.26,10.26,0,0,1-4.27.75,9.6,9.6,0,0,1-2-.54c-.31-.14,1.22.08,1.22-.34s-1.32-.75-1.11-.92a8.56,8.56,0,0,1,2.16,0h.49a5,5,0,0,0,2.74-.78,6.72,6.72,0,0,0,2.09-2.12,10.39,10.39,0,0,0,1.32-3.21,16.61,16.61,0,0,0,.46-4,24.48,24.48,0,0,0-1.36-7.77,38.83,38.83,0,0,0-3.92-8.18,56.13,56.13,0,0,0-6.22-8.12,66.54,66.54,0,0,0-8.22-7.58C34.42,19,34.5,20.29,34.55,21.57Z"/><circle class="cls-2" cx="23.23" cy="39.47" r="3.46"/><path class="cls-2" d="M23.25,42.93l-.51.49a.77.77,0,0,0-.19.84l.37.93a.72.72,0,0,0,.29.35.71.71,0,0,0,.3-.34l.39-.92a.77.77,0,0,0-.15-.85Z"/><path class="cls-2" d="M21.52,42.48l-.68.16a.79.79,0,0,0-.59.64l-.14,1a.72.72,0,0,0,.07.46.7.7,0,0,0,.43-.15l.8-.6a.77.77,0,0,0,.29-.81Z"/><path class="cls-2" d="M20.25,41.22l-.68-.2a.76.76,0,0,0-.82.26l-.62.78a.8.8,0,0,0-.17.43.79.79,0,0,0,.46.08l1-.11a.77.77,0,0,0,.66-.56Z"/><path class="cls-2" d="M19.78,39.49,19.29,39a.78.78,0,0,0-.84-.19l-.93.37a.79.79,0,0,0-.36.29.74.74,0,0,0,.35.3l.91.39a.78.78,0,0,0,.86-.15Z"/><path class="cls-2" d="M20.23,37.76l-.16-.68a.79.79,0,0,0-.64-.59l-1-.14a.71.71,0,0,0-.46.07.7.7,0,0,0,.15.43l.59.8a.79.79,0,0,0,.82.29Z"/><path class="cls-2" d="M21.49,36.49l.2-.68a.76.76,0,0,0-.26-.82l-.78-.62a.72.72,0,0,0-.43-.16.75.75,0,0,0-.09.45l.12,1a.76.76,0,0,0,.56.66Z"/><path class="cls-2" d="M23.22,36l.51-.49a.76.76,0,0,0,.18-.84l-.36-.93a.72.72,0,0,0-.29-.35.67.67,0,0,0-.3.34l-.4.92a.79.79,0,0,0,.16.85Z"/><path class="cls-2" d="M25,36.47l.68-.16a.79.79,0,0,0,.59-.64l.14-1a.72.72,0,0,0-.07-.46.7.7,0,0,0-.43.15l-.8.59a.77.77,0,0,0-.29.82Z"/><path class="cls-2" d="M26.22,37.73l.67.2a.77.77,0,0,0,.83-.26l.62-.78a.72.72,0,0,0,.16-.43.69.69,0,0,0-.45-.08l-1,.11a.76.76,0,0,0-.65.56Z"/><path class="cls-2" d="M26.69,39.46l.49.51a.75.75,0,0,0,.84.18l.92-.36a.7.7,0,0,0,.36-.29.69.69,0,0,0-.35-.3L28,38.8a.78.78,0,0,0-.85.16Z"/><path class="cls-2" d="M26.24,41.19l.16.68a.78.78,0,0,0,.64.59l1,.14a.73.73,0,0,0,.46-.07.77.77,0,0,0-.15-.43l-.6-.8a.75.75,0,0,0-.81-.29Z"/><path class="cls-2" d="M25,42.46l-.2.68A.76.76,0,0,0,25,44l.78.62a.72.72,0,0,0,.43.16.75.75,0,0,0,.08-.45l-.11-1a.77.77,0,0,0-.56-.65Z"/><path class="cls-2" d="M34.71,53c.33,5.74,3.57,6.35,3.57,6.35h0a1.69,1.69,0,0,0,1.86-1.5h0S40.25,54.59,34.71,53Z"/><path class="cls-2" d="M40.6,53.67c-1.48,1.66-.76,2.71-.76,2.71h0a.64.64,0,0,0,.92.1h0S41.69,55.61,40.6,53.67Z"/><path class="cls-2" d="M39.32,65.45c1.48-1.65.76-2.71.76-2.71h0a.66.66,0,0,0-.92-.1h0S38.23,63.51,39.32,65.45Z"/><path class="cls-2" d="M34.07,58.92c1.66,1.48,2.71.76,2.71.76h0a.65.65,0,0,0,.1-.92h0S36,57.83,34.07,58.92Z"/><path class="cls-2" d="M46.49,54.32c-5.74.32-6.35,3.56-6.35,3.56h0a1.7,1.7,0,0,0,1.5,1.87h0S44.94,59.85,46.49,54.32Z"/><path class="cls-2" d="M45.21,66.1c-.33-5.75-3.57-6.35-3.57-6.35h0a1.69,1.69,0,0,0-1.86,1.5h0S39.67,64.54,45.21,66.1Z"/><path class="cls-2" d="M33.43,64.81c5.74-.32,6.35-3.56,6.35-3.56h0a1.7,1.7,0,0,0-1.5-1.87h0S35,59.27,33.43,64.81Z"/><path class="cls-2" d="M45.86,60.21c-1.66-1.48-2.71-.76-2.71-.76h0a.64.64,0,0,0-.1.92h0S43.92,61.3,45.86,60.21Z"/><path class="cls-2" d="M21.4,4.12c2.33-.24,3.3,1.13,4.71,1.6a16.42,16.42,0,0,0,4.34-4.34.83.83,0,0,1,1.4,0c1.94,3,2.13,5.29,1.88,6.77A11.44,11.44,0,0,1,37.3,9.6a.76.76,0,0,1,0,1.29c-5.16,3.31-7.92.94-8,.88s3,2.28.76,8a.76.76,0,0,1-1.26.25,11.41,11.41,0,0,1-2.17-3.19c-1.4.54-3.68.82-7-.47A.82.82,0,0,1,19.38,15a17.16,17.16,0,0,0,3.36-5.14C22,8.58,20.45,7.91,20.21,5.58,20.08,4.26,20.08,4.26,21.4,4.12Z"/><line class="cls-2" x1="29.32" y1="11.77" x2="36.14" y2="17.32"/><polyline class="cls-3" points="34.72 10.1 27.37 10.19 30.79 4.48"/><polyline class="cls-3" points="28.78 17.4 27.37 10.19 22.48 14.7"/><line class="cls-3" x1="27.37" y1="10.19" x2="23.72" y2="7.22"/></svg>