<svg id="Livello_1" data-name="Livello 1" xmlns="http://www.w3.org/2000/svg" viewBox="0 0 112 67"><defs><style>.cls-1{fill:#1d1d1b;}.cls-2,.cls-3{fill:none;stroke:#1d1d1b;}.cls-2{stroke-miterlimit:10;}.cls-3{stroke-linecap:round;stroke-linejoin:round;}</style></defs><path class="cls-1" d="M77.9,17.8a65.54,65.54,0,0,0-8.16,7.52,56.47,56.47,0,0,0-6.17,8,39.23,39.23,0,0,0-3.89,8.12,24.4,24.4,0,0,0-1.35,7.72,16.27,16.27,0,0,0,.46,4,10.51,10.51,0,0,0,1.31,3.19,6.74,6.74,0,0,0,2.07,2.11,5,5,0,0,0,2.72.77h.49a8.48,8.48,0,0,1,2.15.05c.2.17-1.11.61-1.11.91s1.52.2,1.21.33a8.69,8.69,0,0,1-1.94.55,10.12,10.12,0,0,1-4.24-.75,8.24,8.24,0,0,1-2.7-2.47A12.49,12.49,0,0,1,57,54.13a17.05,17.05,0,0,1-.62-4.69A26.93,26.93,0,0,1,57.8,41,38.76,38.76,0,0,1,62,32.28a57.85,57.85,0,0,1,6.87-8.73,81.3,81.3,0,0,1,9.43-8.48l.34-.24a.88.88,0,0,1,.49-.13c.33,0,.77-.67.93-.45a5.24,5.24,0,0,1,0,1.54c0,.13,0,.38,0,.76S80,17.4,80,18s-.08,1.17-.13,1.84-.1,1.34-.13,2-.07,1.35-.09,2,0,1.21,0,1.72a56.65,56.65,0,0,0,.86,10.52,27.83,27.83,0,0,0,2.81,8.37,15,15,0,0,0,5,5.53,13.07,13.07,0,0,0,7.33,2,16.69,16.69,0,0,0,5.63-.87,12.64,12.64,0,0,0,4.08-2.3,9.86,9.86,0,0,0,2.47-3.24,8.69,8.69,0,0,0,.83-3.69,7.44,7.44,0,0,0-.56-3,6.47,6.47,0,0,0-3.84-3.64,8.29,8.29,0,0,0-2.86-.48A9.21,9.21,0,0,0,98.9,35a11.94,11.94,0,0,0-1.82.63,9.57,9.57,0,0,0-1.18.65,3.67,3.67,0,0,0-.48.36l-.3.17A11.74,11.74,0,0,1,93,37.9c-.2-.17,1.28-1.11,1.09-1.27s-1.79.29-1.79,0,1.61-1.26,1.84-1.43a5.69,5.69,0,0,1,.57-.43A9.72,9.72,0,0,1,96.18,34a15.34,15.34,0,0,1,2.23-.79,10.82,10.82,0,0,1,2.89-.37,9.93,9.93,0,0,1,3.64.66,8.39,8.39,0,0,1,2.92,1.84,8.84,8.84,0,0,1,1.92,2.85,9.22,9.22,0,0,1,.7,3.66,10.75,10.75,0,0,1-1,4.4,11.33,11.33,0,0,1-2.85,3.85A14.43,14.43,0,0,1,102,52.79a18.45,18.45,0,0,1-6.41,1,15.39,15.39,0,0,1-8.11-2A16.11,16.11,0,0,1,81.9,46a28.69,28.69,0,0,1-3.26-9,59.36,59.36,0,0,1-1-11.64c0-1.2,0-2.44.08-3.71S77.8,19.12,77.9,17.8Z"/><circle class="cls-2" cx="88.9" cy="39.46" r="3.44"/><path class="cls-2" d="M88.88,42.89l.51.48a.77.77,0,0,1,.18.84l-.36.91a.74.74,0,0,1-.29.36.79.79,0,0,1-.3-.35l-.39-.9a.77.77,0,0,1,.16-.85Z"/><path class="cls-2" d="M90.6,42.44l.68.16a.77.77,0,0,1,.58.63l.14,1a.76.76,0,0,1-.07.45.7.7,0,0,1-.43-.15l-.79-.59a.75.75,0,0,1-.29-.81Z"/><path class="cls-2" d="M91.86,41.19l.67-.2a.76.76,0,0,1,.82.26L94,42a.72.72,0,0,1,.16.43.73.73,0,0,1-.44.08l-1-.11a.77.77,0,0,1-.66-.56Z"/><path class="cls-2" d="M92.33,39.47l.48-.5a.75.75,0,0,1,.84-.19l.91.36a.74.74,0,0,1,.36.29.74.74,0,0,1-.35.3l-.9.39a.77.77,0,0,1-.85-.16Z"/><path class="cls-2" d="M91.88,37.75l.16-.68a.75.75,0,0,1,.63-.57l1-.15a.76.76,0,0,1,.45.07.7.7,0,0,1-.15.43l-.59.79a.75.75,0,0,1-.81.29Z"/><path class="cls-2" d="M90.63,36.49l-.2-.67a.76.76,0,0,1,.26-.82l.77-.61a.72.72,0,0,1,.43-.16.75.75,0,0,1,.08.45l-.11,1a.77.77,0,0,1-.56.66Z"/><path class="cls-2" d="M88.91,36l-.5-.48a.77.77,0,0,1-.19-.84l.36-.91a.3.3,0,1,1,.59,0l.39.9a.77.77,0,0,1-.16.85Z"/><path class="cls-2" d="M87.19,36.48l-.67-.17a.74.74,0,0,1-.58-.63l-.15-1a.76.76,0,0,1,.07-.45.7.7,0,0,1,.43.15l.8.59a.77.77,0,0,1,.28.81Z"/><path class="cls-2" d="M85.93,37.73l-.67.19a.76.76,0,0,1-.82-.26l-.61-.77a.69.69,0,0,1-.16-.42.68.68,0,0,1,.45-.09l1,.11a.77.77,0,0,1,.66.56Z"/><path class="cls-2" d="M85.46,39.44,85,40a.77.77,0,0,1-.84.18l-.91-.36a.74.74,0,0,1-.36-.29.79.79,0,0,1,.35-.3l.9-.39A.77.77,0,0,1,85,39Z"/><path class="cls-2" d="M85.92,41.16l-.17.68a.77.77,0,0,1-.63.58l-1,.14a.77.77,0,0,1-.45-.07.77.77,0,0,1,.15-.43l.59-.79a.76.76,0,0,1,.81-.29Z"/><path class="cls-2" d="M87.17,42.42l.19.67a.76.76,0,0,1-.26.82l-.77.61a.69.69,0,0,1-.42.16.67.67,0,0,1-.09-.44l.11-1a.77.77,0,0,1,.56-.66Z"/><polygon class="cls-2" points="56.38 23.22 52.74 23.22 50.92 21.73 49.1 21.73 48.19 23.22 49.1 24.7 50.92 24.7 52.74 23.22 56.38 23.22"/><polygon class="cls-2" points="56.38 23.19 54.45 25.12 52.7 25.29 51.73 26.26 52.04 27.53 53.31 27.84 54.27 26.87 54.45 25.12 56.38 23.19"/><polygon class="cls-2" points="56.38 23.19 58.31 25.12 58.48 26.87 59.45 27.84 60.72 27.53 61.03 26.26 60.06 25.29 58.31 25.12 56.38 23.19"/><polygon class="cls-2" points="56.38 23.19 58.31 21.26 60.06 21.08 61.03 20.12 60.72 18.84 59.45 18.54 58.48 19.5 58.31 21.26 56.38 23.19"/><polygon class="cls-2" points="56.38 23.19 54.45 21.26 54.27 19.5 53.31 18.54 52.04 18.84 51.73 20.12 52.7 21.08 54.45 21.26 56.38 23.19"/><polygon class="cls-2" points="56.38 23.22 56.38 26.85 54.89 28.67 54.89 30.49 56.38 31.4 57.87 30.49 57.87 28.67 56.38 26.85 56.38 23.22"/><polygon class="cls-2" points="56.38 23.22 60.02 23.22 61.84 24.7 63.66 24.7 64.57 23.22 63.66 21.73 61.84 21.73 60.02 23.22 56.38 23.22"/><polygon class="cls-2" points="56.38 23.22 56.38 19.58 57.87 17.76 57.87 15.94 56.38 15.03 54.89 15.94 54.89 17.76 56.38 19.58 56.38 23.22"/><path class="cls-2" d="M77.5,52.91c-.32,5.7-3.53,6.3-3.53,6.3h0a1.69,1.69,0,0,1-1.86-1.49h0S72,54.45,77.5,52.91Z"/><path class="cls-2" d="M71.66,53.55c1.47,1.64.75,2.69.75,2.69h0a.65.65,0,0,1-.91.1h0S70.58,55.47,71.66,53.55Z"/><path class="cls-2" d="M72.93,65.24c-1.47-1.65-.75-2.69-.75-2.69h0a.64.64,0,0,1,.91-.1h0S74,63.31,72.93,65.24Z"/><path class="cls-2" d="M78.14,58.75c-1.64,1.47-2.69.76-2.69.76h0a.65.65,0,0,1-.1-.91h0S76.22,57.67,78.14,58.75Z"/><path class="cls-2" d="M65.81,54.18c5.7.33,6.3,3.54,6.3,3.54h0a1.67,1.67,0,0,1-1.48,1.85h0S67.36,59.68,65.81,54.18Z"/><path class="cls-2" d="M67.09,65.88c.32-5.7,3.54-6.31,3.54-6.31h0a1.68,1.68,0,0,1,1.85,1.49h0S72.58,64.33,67.09,65.88Z"/><path class="cls-2" d="M78.78,64.6c-5.7-.32-6.3-3.54-6.3-3.54h0A1.68,1.68,0,0,1,74,59.21h0S77.24,59.1,78.78,64.6Z"/><path class="cls-2" d="M66.44,60c1.65-1.47,2.7-.76,2.7-.76h0a.66.66,0,0,1,.09.92h0S68.37,61.11,66.44,60Z"/><path class="cls-2" d="M90.72,4.37C88.41,4.13,87.44,5.49,86,6a16.24,16.24,0,0,1-4.3-4.31.83.83,0,0,0-1.39,0c-1.93,3-2.12,5.25-1.87,6.72a11.26,11.26,0,0,0-3.54,1.46.75.75,0,0,0,0,1.27c5.13,3.29,7.87.94,7.94.88s-2.93,2.26-.76,8a.75.75,0,0,0,1.25.25A11.51,11.51,0,0,0,85.51,17c1.38.54,3.65.81,7-.46a.83.83,0,0,0,.25-1.37,17.08,17.08,0,0,1-3.34-5.09c.75-1.27,2.28-1.94,2.51-4.25C92,4.51,92,4.51,90.72,4.37Z"/><line class="cls-2" x1="82.86" y1="11.96" x2="76.09" y2="17.47"/><polyline class="cls-3" points="77.5 10.3 84.79 10.39 81.39 4.73"/><polyline class="cls-3" points="83.39 17.55 84.79 10.39 89.64 14.87"/><line class="cls-3" x1="84.79" y1="10.39" x2="88.42" y2="7.45"/><path class="cls-1" d="M35.09,21.55c0,1.28.08,2.51.08,3.71a58.75,58.75,0,0,1-1.06,11.65,28.47,28.47,0,0,1-3.25,9,16.22,16.22,0,0,1-5.59,5.77,15.48,15.48,0,0,1-8.11,2,18.32,18.32,0,0,1-6.42-1,14.2,14.2,0,0,1-4.65-2.72,11.23,11.23,0,0,1-2.85-3.85,10.57,10.57,0,0,1-1-4.4A9.21,9.21,0,0,1,3,38a8.4,8.4,0,0,1,4.84-4.7,10.1,10.1,0,0,1,3.64-.65,10.84,10.84,0,0,1,2.89.36,14.7,14.7,0,0,1,2.22.8,8.68,8.68,0,0,1,1.45.8c.35.25.54.4.57.43.23.18,1.84,1.11,1.84,1.44s-1.6-.18-1.79,0,1.28,1.1,1.09,1.27a10.54,10.54,0,0,1-2.09-1.06l-.3-.17s-.19-.15-.48-.35a8,8,0,0,0-1.18-.65,10.72,10.72,0,0,0-1.83-.64,9.13,9.13,0,0,0-2.36-.29,8.16,8.16,0,0,0-2.87.49,6.65,6.65,0,0,0-2.3,1.4,6.73,6.73,0,0,0-1.54,2.24,7.61,7.61,0,0,0-.55,3,8.62,8.62,0,0,0,.83,3.68,9.53,9.53,0,0,0,2.47,3.24,12.6,12.6,0,0,0,4.07,2.31,16.75,16.75,0,0,0,5.64.87,13.09,13.09,0,0,0,7.32-2,15.15,15.15,0,0,0,5-5.53,28.11,28.11,0,0,0,2.81-8.37,56.83,56.83,0,0,0,.86-10.53c0-.5,0-1.07,0-1.72s-.06-1.3-.09-2-.08-1.36-.13-2-.1-1.28-.13-1.83-.06-1-.09-1.41,0-.63,0-.75a5,5,0,0,1,0-1.55c.16-.21.59.46.92.46a.91.91,0,0,1,.5.13,2.83,2.83,0,0,1,.34.23,83.17,83.17,0,0,1,9.43,8.48,58.05,58.05,0,0,1,6.87,8.74A39.13,39.13,0,0,1,55,40.86a27,27,0,0,1,1.42,8.45A16.65,16.65,0,0,1,55.75,54,12.23,12.23,0,0,1,54,57.74a8.16,8.16,0,0,1-2.71,2.47,10,10,0,0,1-4.23.75,9.24,9.24,0,0,1-1.94-.54c-.31-.13,1.2.08,1.2-.34s-1.3-.74-1.1-.91a8.9,8.9,0,0,1,2.14-.05h.5a5,5,0,0,0,2.72-.77,6.74,6.74,0,0,0,2.07-2.11A10.45,10.45,0,0,0,54,53.06a16.86,16.86,0,0,0,.46-4,24.13,24.13,0,0,0-1.36-7.71,38.26,38.26,0,0,0-3.89-8.12A55.1,55.1,0,0,0,43,25.18a66.94,66.94,0,0,0-8.15-7.52C35,19,35,20.28,35.09,21.55Z"/><circle class="cls-2" cx="23.86" cy="39.32" r="3.44"/><path class="cls-2" d="M23.88,42.75l-.51.48a.76.76,0,0,0-.18.84l.36.92a.72.72,0,0,0,.29.35.77.77,0,0,0,.3-.34l.39-.91a.77.77,0,0,0-.16-.84Z"/><path class="cls-2" d="M22.16,42.3l-.68.16a.8.8,0,0,0-.58.64l-.14,1a.69.69,0,0,0,.07.45.7.7,0,0,0,.43-.15l.79-.58a.78.78,0,0,0,.29-.82Z"/><path class="cls-2" d="M20.9,41.05l-.67-.2a.76.76,0,0,0-.82.26l-.61.77a.8.8,0,0,0-.17.43.78.78,0,0,0,.45.09l1-.12a.75.75,0,0,0,.65-.56Z"/><path class="cls-2" d="M20.43,39.34,20,38.83a.76.76,0,0,0-.84-.18l-.92.36a.72.72,0,0,0-.35.29.75.75,0,0,0,.34.29l.91.39a.75.75,0,0,0,.84-.15Z"/><path class="cls-2" d="M20.88,37.62l-.16-.68a.76.76,0,0,0-.64-.58l-1-.14a.69.69,0,0,0-.45.07.7.7,0,0,0,.15.43l.59.79a.76.76,0,0,0,.81.29Z"/><path class="cls-2" d="M22.13,36.36l.2-.67a.76.76,0,0,0-.26-.82l-.77-.61a.73.73,0,0,0-.43-.17.76.76,0,0,0-.08.45l.11,1a.76.76,0,0,0,.56.65Z"/><path class="cls-2" d="M23.84,35.89l.51-.48a.78.78,0,0,0,.19-.84l-.37-.92a.76.76,0,0,0-.28-.35.71.71,0,0,0-.3.34l-.39.91a.75.75,0,0,0,.15.84Z"/><path class="cls-2" d="M25.56,36.34l.68-.16a.77.77,0,0,0,.58-.64l.15-1a.84.84,0,0,0-.07-.45.71.71,0,0,0-.44.15l-.79.58a.76.76,0,0,0-.28.82Z"/><path class="cls-2" d="M26.82,37.59l.67.2a.75.75,0,0,0,.82-.26l.62-.77a.79.79,0,0,0,.16-.43.76.76,0,0,0-.45-.09l-1,.12a.75.75,0,0,0-.65.56Z"/><path class="cls-2" d="M27.29,39.3l.48.51a.76.76,0,0,0,.84.18l.92-.36a.79.79,0,0,0,.36-.29.77.77,0,0,0-.35-.29l-.91-.39a.75.75,0,0,0-.84.15Z"/><path class="cls-2" d="M26.84,41l.16.68a.78.78,0,0,0,.64.58l1,.14a.72.72,0,0,0,.46-.07.86.86,0,0,0-.15-.43l-.59-.79a.77.77,0,0,0-.81-.29Z"/><path class="cls-2" d="M25.59,42.28l-.2.67a.77.77,0,0,0,.26.82l.78.61a.68.68,0,0,0,.42.17.76.76,0,0,0,.09-.45l-.12-1a.75.75,0,0,0-.55-.65Z"/><path class="cls-2" d="M35.25,52.77c.32,5.7,3.54,6.3,3.54,6.3h0a1.67,1.67,0,0,0,1.85-1.48h0S40.75,54.32,35.25,52.77Z"/><path class="cls-2" d="M41.1,53.41c-1.47,1.65-.76,2.69-.76,2.69h0a.65.65,0,0,0,.92.1h0S42.18,55.33,41.1,53.41Z"/><path class="cls-2" d="M39.82,65.1c1.47-1.64.76-2.69.76-2.69h0a.65.65,0,0,0-.91-.1h0S38.74,63.18,39.82,65.1Z"/><path class="cls-2" d="M34.62,58.62c1.64,1.47,2.69.75,2.69.75h0a.65.65,0,0,0,.1-.91h0S36.54,57.54,34.62,58.62Z"/><path class="cls-2" d="M46.94,54.05c-5.69.32-6.3,3.54-6.3,3.54h0a1.68,1.68,0,0,0,1.49,1.85h0S45.4,59.54,46.94,54.05Z"/><path class="cls-2" d="M45.67,65.74c-.32-5.7-3.54-6.3-3.54-6.3h0a1.68,1.68,0,0,0-1.85,1.49h0S40.17,64.2,45.67,65.74Z"/><path class="cls-2" d="M34,64.46c5.7-.32,6.3-3.53,6.3-3.53h0a1.69,1.69,0,0,0-1.49-1.86h0S35.52,59,34,64.46Z"/><path class="cls-2" d="M46.31,59.89c-1.64-1.47-2.69-.75-2.69-.75h0a.65.65,0,0,0-.1.91h0S44.39,61,46.31,59.89Z"/><path class="cls-2" d="M22,4.24c2.31-.24,3.28,1.11,4.67,1.59A16.35,16.35,0,0,0,31,1.52a.83.83,0,0,1,1.39,0c1.92,3,2.12,5.25,1.87,6.72a11.26,11.26,0,0,1,3.54,1.46.76.76,0,0,1,0,1.28c-5.12,3.29-7.86.93-7.93.88s2.93,2.26.76,8A.76.76,0,0,1,29.4,20a11.42,11.42,0,0,1-2.15-3.16c-1.39.54-3.65.81-7-.47A.82.82,0,0,1,20,15a16.83,16.83,0,0,0,3.34-5.1C22.62,8.66,21.1,8,20.86,5.68,20.73,4.37,20.73,4.37,22,4.24Z"/><line class="cls-2" x1="29.9" y1="11.83" x2="36.67" y2="17.33"/><polyline class="cls-3" points="35.26 10.17 27.96 10.26 31.36 4.59"/><polyline class="cls-3" points="29.37 17.41 27.96 10.26 23.12 14.74"/><line class="cls-3" x1="27.96" y1="10.25" x2="24.34" y2="7.31"/></svg>