<svg xmlns="http://www.w3.org/2000/svg" viewBox="0 0 254.22 1417.56"><defs><style>.cls-1{fill:#dfb9a4;}.cls-2,.cls-9{fill:none;}.cls-3{fill:#852e27;}.cls-4{fill:#552226;}.cls-5{fill:#6f3335;}.cls-6{fill:#af6967;}.cls-7{fill:#734434;}.cls-8{fill:#d0987f;}.cls-9{stroke:#b2b2b2;stroke-miterlimit:10;}.cls-10,.cls-12{font-size:43.34px;}.cls-10,.cls-12,.cls-14{fill:#1d1d1b;font-family:PlayfairDisplay-Regular, Playfair Display;}.cls-10{letter-spacing:-0.01em;}.cls-11{letter-spacing:0em;}.cls-13{letter-spacing:-0.01em;}.cls-14{font-size:32.5px;}.cls-15{letter-spacing:-0.01em;}.cls-16{letter-spacing:-0.02em;}.cls-17{letter-spacing:0em;}.cls-18{letter-spacing:-0.01em;}</style></defs><g id="Livello_2" data-name="Livello 2"><g id="Castagna"><rect class="cls-1" y="49.25" width="252.46" height="137.18"/><path class="cls-2" d="M253.71,49.67H1.25A49.18,49.18,0,0,1,50.42.5H204.55A49.17,49.17,0,0,1,253.71,49.67Z"/><rect class="cls-2" x="1.25" y="186.85" width="252.46" height="48.75"/><rect class="cls-3" x="1.26" y="793.39" width="252.46" height="137.18"/><rect class="cls-4" x="1.26" y="1164.44" width="252.46" height="137.18"/><rect class="cls-5" x="1.25" y="979.72" width="252.46" height="137.18"/><rect class="cls-6" x="1.26" y="422.33" width="252.46" height="137.18"/><rect class="cls-7" x="1.26" y="607.86" width="252.46" height="137.18"/><rect class="cls-8" x="1.25" y="235.18" width="252.46" height="137.18"/><rect class="cls-9" x="1.25" y="0.5" width="252.46" height="1416.56" rx="22.74"/><rect class="cls-2" x="1.25" y="372.36" width="252.46" height="48.75"/><rect class="cls-2" x="1.26" y="557.87" width="252.46" height="48.75"/><rect class="cls-2" x="1.26" y="743.81" width="252.46" height="48.75"/><rect class="cls-2" x="1.26" y="929.74" width="252.46" height="48.75"/><rect class="cls-2" x="1.26" y="1115.68" width="252.46" height="48.75"/><rect class="cls-2" x="1.25" y="1301.61" width="252.46" height="48.75"/><line class="cls-9" x1="1.25" y1="1350.36" x2="253.71" y2="1350.36"/><text class="cls-10" transform="translate(47.79 1399.53)">P<tspan class="cls-11" x="25.05" y="0">antone</tspan></text><text class="cls-12" transform="translate(38.49 39.88)">Castagn<tspan class="cls-13" x="156.44" y="0">a</tspan></text><text class="cls-14" transform="translate(59.62 224.94)">#dfb9a4</text><text class="cls-14" transform="translate(63.45 409.21)">#d0987f</text><text class="cls-14" transform="translate(66.43 593.48)">#af696<tspan class="cls-15" x="97.83" y="0">7</tspan></text><text class="cls-14" transform="translate(72.08 779.91)">#734<tspan class="cls-16" x="64.61" y="0">4</tspan><tspan class="cls-17" x="80.08" y="0">34</tspan></text><text class="cls-14" transform="translate(70 966.35)">#852e2<tspan class="cls-15" x="98.68" y="0">7</tspan></text><text class="cls-14" transform="translate(70.98 1152.78)">#6f333<tspan class="cls-18" x="92.27" y="0">5</tspan></text><text class="cls-14" transform="translate(71.89 1339.21)">#552226</text></g></g></svg>